<svg width="298" height="286" viewBox="0 0 298 286" fill="none" xmlns="http://www.w3.org/2000/svg">
<rect x="0.5" y="0.5" width="297" height="285" rx="3.5" fill="#F9F9F9"/>
<rect x="0.5" y="0.5" width="297" height="285" rx="3.5" stroke="#E5E5E5"/>
<path d="M24.384 22.88V24.368H21.424V34H19.6V24.368H16.624V22.88H24.384ZM30.0553 34.144C29.2233 34.144 28.4713 33.9573 27.7993 33.584C27.1273 33.2 26.5993 32.6667 26.2153 31.984C25.8313 31.2907 25.6393 30.4907 25.6393 29.584C25.6393 28.688 25.8366 27.8933 26.2313 27.2C26.6259 26.5067 27.1646 25.9733 27.8473 25.6C28.5299 25.2267 29.2926 25.04 30.1353 25.04C30.9779 25.04 31.7406 25.2267 32.4233 25.6C33.1059 25.9733 33.6446 26.5067 34.0393 27.2C34.4339 27.8933 34.6313 28.688 34.6313 29.584C34.6313 30.48 34.4286 31.2747 34.0233 31.968C33.6179 32.6613 33.0633 33.2 32.3593 33.584C31.6659 33.9573 30.8979 34.144 30.0553 34.144ZM30.0553 32.56C30.5246 32.56 30.9619 32.448 31.3673 32.224C31.7833 32 32.1193 31.664 32.3753 31.216C32.6313 30.768 32.7593 30.224 32.7593 29.584C32.7593 28.944 32.6366 28.4053 32.3913 27.968C32.1459 27.52 31.8206 27.184 31.4153 26.96C31.0099 26.736 30.5726 26.624 30.1033 26.624C29.6339 26.624 29.1966 26.736 28.7913 26.96C28.3966 27.184 28.0819 27.52 27.8473 27.968C27.6126 28.4053 27.4953 28.944 27.4953 29.584C27.4953 30.5333 27.7353 31.2693 28.2153 31.792C28.7059 32.304 29.3193 32.56 30.0553 32.56ZM35.8264 29.552C35.8264 28.6667 36.0077 27.8827 36.3704 27.2C36.7437 26.5173 37.245 25.9893 37.8744 25.616C38.5144 25.232 39.2237 25.04 40.0024 25.04C40.5784 25.04 41.1437 25.168 41.6984 25.424C42.2637 25.6693 42.7117 26 43.0424 26.416V22.16H44.8824V34H43.0424V32.672C42.7437 33.0987 42.3277 33.4507 41.7944 33.728C41.2717 34.0053 40.669 34.144 39.9864 34.144C39.2184 34.144 38.5144 33.952 37.8744 33.568C37.245 33.1733 36.7437 32.6293 36.3704 31.936C36.0077 31.232 35.8264 30.4373 35.8264 29.552ZM43.0424 29.584C43.0424 28.976 42.9144 28.448 42.6584 28C42.413 27.552 42.0877 27.2107 41.6824 26.976C41.277 26.7413 40.8397 26.624 40.3704 26.624C39.901 26.624 39.4637 26.7413 39.0584 26.976C38.653 27.2 38.3224 27.536 38.0664 27.984C37.821 28.4213 37.6984 28.944 37.6984 29.552C37.6984 30.16 37.821 30.6933 38.0664 31.152C38.3224 31.6107 38.653 31.9627 39.0584 32.208C39.4744 32.4427 39.9117 32.56 40.3704 32.56C40.8397 32.56 41.277 32.4427 41.6824 32.208C42.0877 31.9733 42.413 31.632 42.6584 31.184C42.9144 30.7253 43.0424 30.192 43.0424 29.584ZM51.1021 34.144C50.2701 34.144 49.5181 33.9573 48.8461 33.584C48.1741 33.2 47.6461 32.6667 47.2621 31.984C46.8781 31.2907 46.6861 30.4907 46.6861 29.584C46.6861 28.688 46.8835 27.8933 47.2781 27.2C47.6728 26.5067 48.2115 25.9733 48.8941 25.6C49.5768 25.2267 50.3395 25.04 51.1821 25.04C52.0248 25.04 52.7875 25.2267 53.4701 25.6C54.1528 25.9733 54.6915 26.5067 55.0861 27.2C55.4808 27.8933 55.6781 28.688 55.6781 29.584C55.6781 30.48 55.4755 31.2747 55.0701 31.968C54.6648 32.6613 54.1101 33.2 53.4061 33.584C52.7128 33.9573 51.9448 34.144 51.1021 34.144ZM51.1021 32.56C51.5715 32.56 52.0088 32.448 52.4141 32.224C52.8301 32 53.1661 31.664 53.4221 31.216C53.6781 30.768 53.8061 30.224 53.8061 29.584C53.8061 28.944 53.6835 28.4053 53.4381 27.968C53.1928 27.52 52.8675 27.184 52.4621 26.96C52.0568 26.736 51.6195 26.624 51.1501 26.624C50.6808 26.624 50.2435 26.736 49.8381 26.96C49.4435 27.184 49.1288 27.52 48.8941 27.968C48.6595 28.4053 48.5421 28.944 48.5421 29.584C48.5421 30.5333 48.7821 31.2693 49.2621 31.792C49.7528 32.304 50.3661 32.56 51.1021 32.56Z" fill="black"/>
<rect x="16.5" y="56.5" width="265" height="107" rx="3.5" fill="white"/>
<rect x="16.5" y="56.5" width="265" height="107" rx="3.5" stroke="#666666"/>
<rect x="24" y="64" width="35" height="23" rx="11.5" fill="#B8EBB0"/>
<path d="M33.68 78.26H36.12V79H32.77V72.03H33.68V78.26ZM39.4764 79.09C38.9631 79.09 38.4964 78.9733 38.0764 78.74C37.6631 78.5067 37.3364 78.1767 37.0964 77.75C36.8631 77.3167 36.7464 76.8167 36.7464 76.25C36.7464 75.69 36.8664 75.1967 37.1064 74.77C37.3531 74.3367 37.6864 74.0067 38.1064 73.78C38.5264 73.5467 38.9964 73.43 39.5164 73.43C40.0364 73.43 40.5064 73.5467 40.9264 73.78C41.3464 74.0067 41.6764 74.3333 41.9164 74.76C42.1631 75.1867 42.2864 75.6833 42.2864 76.25C42.2864 76.8167 42.1597 77.3167 41.9064 77.75C41.6597 78.1767 41.3231 78.5067 40.8964 78.74C40.4697 78.9733 39.9964 79.09 39.4764 79.09ZM39.4764 78.29C39.8031 78.29 40.1097 78.2133 40.3964 78.06C40.6831 77.9067 40.9131 77.6767 41.0864 77.37C41.2664 77.0633 41.3564 76.69 41.3564 76.25C41.3564 75.81 41.2697 75.4367 41.0964 75.13C40.9231 74.8233 40.6964 74.5967 40.4164 74.45C40.1364 74.2967 39.8331 74.22 39.5064 74.22C39.1731 74.22 38.8664 74.2967 38.5864 74.45C38.3131 74.5967 38.0931 74.8233 37.9264 75.13C37.7597 75.4367 37.6764 75.81 37.6764 76.25C37.6764 76.6967 37.7564 77.0733 37.9164 77.38C38.0831 77.6867 38.3031 77.9167 38.5764 78.07C38.8497 78.2167 39.1497 78.29 39.4764 78.29ZM50.7829 73.52L49.0729 79H48.1329L46.8129 74.65L45.4929 79H44.5529L42.8329 73.52H43.7629L45.0229 78.12L46.3829 73.52H47.3129L48.6429 78.13L49.8829 73.52H50.7829Z" fill="#221C1D"/>
<path d="M30.288 99.66V100.776H28.068V108H26.7V100.776H24.468V99.66H30.288ZM35.0934 101.28C35.5974 101.28 36.0454 101.388 36.4374 101.604C36.8374 101.82 37.1494 102.14 37.3734 102.564C37.6054 102.988 37.7214 103.5 37.7214 104.1V108H36.3654V104.304C36.3654 103.712 36.2174 103.26 35.9214 102.948C35.6254 102.628 35.2214 102.468 34.7094 102.468C34.1974 102.468 33.7894 102.628 33.4854 102.948C33.1894 103.26 33.0414 103.712 33.0414 104.304V108H31.6734V99.12H33.0414V102.156C33.2734 101.876 33.5654 101.66 33.9174 101.508C34.2774 101.356 34.6694 101.28 35.0934 101.28ZM40.1624 100.512C39.9144 100.512 39.7064 100.428 39.5384 100.26C39.3704 100.092 39.2864 99.884 39.2864 99.636C39.2864 99.388 39.3704 99.18 39.5384 99.012C39.7064 98.844 39.9144 98.76 40.1624 98.76C40.4024 98.76 40.6064 98.844 40.7744 99.012C40.9424 99.18 41.0264 99.388 41.0264 99.636C41.0264 99.884 40.9424 100.092 40.7744 100.26C40.6064 100.428 40.4024 100.512 40.1624 100.512ZM40.8344 101.388V108H39.4664V101.388H40.8344ZM45.0305 108.108C44.5105 108.108 44.0425 108.016 43.6265 107.832C43.2185 107.64 42.8945 107.384 42.6545 107.064C42.4145 106.736 42.2865 106.372 42.2705 105.972H43.6865C43.7105 106.252 43.8425 106.488 44.0825 106.68C44.3305 106.864 44.6385 106.956 45.0065 106.956C45.3905 106.956 45.6865 106.884 45.8945 106.74C46.1105 106.588 46.2185 106.396 46.2185 106.164C46.2185 105.916 46.0985 105.732 45.8585 105.612C45.6265 105.492 45.2545 105.36 44.7425 105.216C44.2465 105.08 43.8425 104.948 43.5305 104.82C43.2185 104.692 42.9465 104.496 42.7145 104.232C42.4905 103.968 42.3785 103.62 42.3785 103.188C42.3785 102.836 42.4825 102.516 42.6905 102.228C42.8985 101.932 43.1945 101.7 43.5785 101.532C43.9705 101.364 44.4185 101.28 44.9225 101.28C45.6745 101.28 46.2785 101.472 46.7345 101.856C47.1985 102.232 47.4465 102.748 47.4785 103.404H46.1105C46.0865 103.108 45.9665 102.872 45.7505 102.696C45.5345 102.52 45.2425 102.432 44.8745 102.432C44.5145 102.432 44.2385 102.5 44.0465 102.636C43.8545 102.772 43.7585 102.952 43.7585 103.176C43.7585 103.352 43.8225 103.5 43.9505 103.62C44.0785 103.74 44.2345 103.836 44.4185 103.908C44.6025 103.972 44.8745 104.056 45.2345 104.16C45.7145 104.288 46.1065 104.42 46.4105 104.556C46.7225 104.684 46.9905 104.876 47.2145 105.132C47.4385 105.388 47.5545 105.728 47.5625 106.152C47.5625 106.528 47.4585 106.864 47.2505 107.16C47.0425 107.456 46.7465 107.688 46.3625 107.856C45.9865 108.024 45.5425 108.108 45.0305 108.108ZM52.8538 100.512C52.6058 100.512 52.3978 100.428 52.2298 100.26C52.0618 100.092 51.9778 99.884 51.9778 99.636C51.9778 99.388 52.0618 99.18 52.2298 99.012C52.3978 98.844 52.6058 98.76 52.8538 98.76C53.0938 98.76 53.2978 98.844 53.4658 99.012C53.6338 99.18 53.7178 99.388 53.7178 99.636C53.7178 99.884 53.6338 100.092 53.4658 100.26C53.2978 100.428 53.0938 100.512 52.8538 100.512ZM53.5258 101.388V108H52.1578V101.388H53.5258ZM57.7219 108.108C57.2019 108.108 56.7339 108.016 56.3179 107.832C55.9099 107.64 55.5859 107.384 55.3459 107.064C55.1059 106.736 54.9779 106.372 54.9619 105.972H56.3779C56.4019 106.252 56.5339 106.488 56.7739 106.68C57.0219 106.864 57.3299 106.956 57.6979 106.956C58.0819 106.956 58.3779 106.884 58.5859 106.74C58.8019 106.588 58.9099 106.396 58.9099 106.164C58.9099 105.916 58.7899 105.732 58.5499 105.612C58.3179 105.492 57.9459 105.36 57.4339 105.216C56.9379 105.08 56.5339 104.948 56.2219 104.82C55.9099 104.692 55.6379 104.496 55.4059 104.232C55.1819 103.968 55.0699 103.62 55.0699 103.188C55.0699 102.836 55.1739 102.516 55.3819 102.228C55.5899 101.932 55.8859 101.7 56.2699 101.532C56.6619 101.364 57.1099 101.28 57.6139 101.28C58.3659 101.28 58.9699 101.472 59.4259 101.856C59.8899 102.232 60.1379 102.748 60.1699 103.404H58.8019C58.7779 103.108 58.6579 102.872 58.4419 102.696C58.2259 102.52 57.9339 102.432 57.5659 102.432C57.2059 102.432 56.9299 102.5 56.7379 102.636C56.5459 102.772 56.4499 102.952 56.4499 103.176C56.4499 103.352 56.5139 103.5 56.6419 103.62C56.7699 103.74 56.9259 103.836 57.1099 103.908C57.2939 103.972 57.5659 104.056 57.9259 104.16C58.4059 104.288 58.7979 104.42 59.1019 104.556C59.4139 104.684 59.6819 104.876 59.9059 105.132C60.1299 105.388 60.2459 105.728 60.2539 106.152C60.2539 106.528 60.1499 106.864 59.9419 107.16C59.7339 107.456 59.4379 107.688 59.0539 107.856C58.6779 108.024 58.2339 108.108 57.7219 108.108ZM66.4452 102.504V106.164C66.4452 106.412 66.5012 106.592 66.6132 106.704C66.7332 106.808 66.9332 106.86 67.2132 106.86H68.0532V108H66.9732C66.3572 108 65.8852 107.856 65.5572 107.568C65.2292 107.28 65.0652 106.812 65.0652 106.164V102.504H64.2852V101.388H65.0652V99.744H66.4452V101.388H68.0532V102.504H66.4452ZM68.8581 104.664C68.8581 104 68.9941 103.412 69.2661 102.9C69.5461 102.388 69.9221 101.992 70.3941 101.712C70.8741 101.424 71.4021 101.28 71.9781 101.28C72.4981 101.28 72.9501 101.384 73.3341 101.592C73.7261 101.792 74.0381 102.044 74.2701 102.348V101.388H75.6501V108H74.2701V107.016C74.0381 107.328 73.7221 107.588 73.3221 107.796C72.9221 108.004 72.4661 108.108 71.9541 108.108C71.3861 108.108 70.8661 107.964 70.3941 107.676C69.9221 107.38 69.5461 106.972 69.2661 106.452C68.9941 105.924 68.8581 105.328 68.8581 104.664ZM74.2701 104.688C74.2701 104.232 74.1741 103.836 73.9821 103.5C73.7981 103.164 73.5541 102.908 73.2501 102.732C72.9461 102.556 72.6181 102.468 72.2661 102.468C71.9141 102.468 71.5861 102.556 71.2821 102.732C70.9781 102.9 70.7301 103.152 70.5381 103.488C70.3541 103.816 70.2621 104.208 70.2621 104.664C70.2621 105.12 70.3541 105.52 70.5381 105.864C70.7301 106.208 70.9781 106.472 71.2821 106.656C71.5941 106.832 71.9221 106.92 72.2661 106.92C72.6181 106.92 72.9461 106.832 73.2501 106.656C73.5541 106.48 73.7981 106.224 73.9821 105.888C74.1741 105.544 74.2701 105.144 74.2701 104.688ZM79.8469 108.108C79.3269 108.108 78.8589 108.016 78.4429 107.832C78.0349 107.64 77.7109 107.384 77.4709 107.064C77.2309 106.736 77.1029 106.372 77.0869 105.972H78.5029C78.5269 106.252 78.6589 106.488 78.8989 106.68C79.1469 106.864 79.4549 106.956 79.8229 106.956C80.2069 106.956 80.5029 106.884 80.7109 106.74C80.9269 106.588 81.0349 106.396 81.0349 106.164C81.0349 105.916 80.9149 105.732 80.6749 105.612C80.4429 105.492 80.0709 105.36 79.5589 105.216C79.0629 105.08 78.6589 104.948 78.3469 104.82C78.0349 104.692 77.7629 104.496 77.5309 104.232C77.3069 103.968 77.1949 103.62 77.1949 103.188C77.1949 102.836 77.2989 102.516 77.5069 102.228C77.7149 101.932 78.0109 101.7 78.3949 101.532C78.7869 101.364 79.2349 101.28 79.7389 101.28C80.4909 101.28 81.0949 101.472 81.5509 101.856C82.0149 102.232 82.2629 102.748 82.2949 103.404H80.9269C80.9029 103.108 80.7829 102.872 80.5669 102.696C80.3509 102.52 80.0589 102.432 79.6909 102.432C79.3309 102.432 79.0549 102.5 78.8629 102.636C78.6709 102.772 78.5749 102.952 78.5749 103.176C78.5749 103.352 78.6389 103.5 78.7669 103.62C78.8949 103.74 79.0509 103.836 79.2349 103.908C79.4189 103.972 79.6909 104.056 80.0509 104.16C80.5309 104.288 80.9229 104.42 81.2269 104.556C81.5389 104.684 81.8069 104.876 82.0309 105.132C82.2549 105.388 82.3709 105.728 82.3789 106.152C82.3789 106.528 82.2749 106.864 82.0669 107.16C81.8589 107.456 81.5629 107.688 81.1789 107.856C80.8029 108.024 80.3589 108.108 79.8469 108.108ZM86.473 104.7L89.521 108H87.673L85.225 105.156V108H83.857V99.12H85.225V104.28L87.625 101.388H89.521L86.473 104.7ZM93.1628 104.664C93.1628 104 93.2988 103.412 93.5708 102.9C93.8508 102.388 94.2268 101.992 94.6988 101.712C95.1788 101.424 95.7108 101.28 96.2948 101.28C96.7268 101.28 97.1508 101.376 97.5668 101.568C97.9908 101.752 98.3268 102 98.5748 102.312V99.12H99.9548V108H98.5748V107.004C98.3508 107.324 98.0388 107.588 97.6388 107.796C97.2468 108.004 96.7948 108.108 96.2828 108.108C95.7068 108.108 95.1788 107.964 94.6988 107.676C94.2268 107.38 93.8508 106.972 93.5708 106.452C93.2988 105.924 93.1628 105.328 93.1628 104.664ZM98.5748 104.688C98.5748 104.232 98.4788 103.836 98.2868 103.5C98.1028 103.164 97.8588 102.908 97.5548 102.732C97.2508 102.556 96.9228 102.468 96.5708 102.468C96.2188 102.468 95.8908 102.556 95.5868 102.732C95.2828 102.9 95.0348 103.152 94.8428 103.488C94.6588 103.816 94.5668 104.208 94.5668 104.664C94.5668 105.12 94.6588 105.52 94.8428 105.864C95.0348 106.208 95.2828 106.472 95.5868 106.656C95.8988 106.832 96.2268 106.92 96.5708 106.92C96.9228 106.92 97.2508 106.832 97.5548 106.656C97.8588 106.48 98.1028 106.224 98.2868 105.888C98.4788 105.544 98.5748 105.144 98.5748 104.688ZM107.812 104.532C107.812 104.78 107.796 105.004 107.764 105.204H102.712C102.752 105.732 102.948 106.156 103.3 106.476C103.652 106.796 104.084 106.956 104.596 106.956C105.332 106.956 105.852 106.648 106.156 106.032H107.632C107.432 106.64 107.068 107.14 106.54 107.532C106.02 107.916 105.372 108.108 104.596 108.108C103.964 108.108 103.396 107.968 102.892 107.688C102.396 107.4 102.004 107 101.716 106.488C101.436 105.968 101.296 105.368 101.296 104.688C101.296 104.008 101.432 103.412 101.704 102.9C101.984 102.38 102.372 101.98 102.868 101.7C103.372 101.42 103.948 101.28 104.596 101.28C105.22 101.28 105.776 101.416 106.264 101.688C106.752 101.96 107.132 102.344 107.404 102.84C107.676 103.328 107.812 103.892 107.812 104.532ZM106.384 104.1C106.376 103.596 106.196 103.192 105.844 102.888C105.492 102.584 105.056 102.432 104.536 102.432C104.064 102.432 103.66 102.584 103.324 102.888C102.988 103.184 102.788 103.588 102.724 104.1H106.384ZM111.558 108.108C111.038 108.108 110.57 108.016 110.154 107.832C109.746 107.64 109.422 107.384 109.182 107.064C108.942 106.736 108.814 106.372 108.798 105.972H110.214C110.238 106.252 110.37 106.488 110.61 106.68C110.858 106.864 111.166 106.956 111.534 106.956C111.918 106.956 112.214 106.884 112.422 106.74C112.638 106.588 112.746 106.396 112.746 106.164C112.746 105.916 112.626 105.732 112.386 105.612C112.154 105.492 111.782 105.36 111.27 105.216C110.774 105.08 110.37 104.948 110.058 104.82C109.746 104.692 109.474 104.496 109.242 104.232C109.018 103.968 108.906 103.62 108.906 103.188C108.906 102.836 109.01 102.516 109.218 102.228C109.426 101.932 109.722 101.7 110.106 101.532C110.498 101.364 110.946 101.28 111.45 101.28C112.202 101.28 112.806 101.472 113.262 101.856C113.726 102.232 113.974 102.748 114.006 103.404H112.638C112.614 103.108 112.494 102.872 112.278 102.696C112.062 102.52 111.77 102.432 111.402 102.432C111.042 102.432 110.766 102.5 110.574 102.636C110.382 102.772 110.286 102.952 110.286 103.176C110.286 103.352 110.35 103.5 110.478 103.62C110.606 103.74 110.762 103.836 110.946 103.908C111.13 103.972 111.402 104.056 111.762 104.16C112.242 104.288 112.634 104.42 112.938 104.556C113.25 104.684 113.518 104.876 113.742 105.132C113.966 105.388 114.082 105.728 114.09 106.152C114.09 106.528 113.986 106.864 113.778 107.16C113.57 107.456 113.274 107.688 112.89 107.856C112.514 108.024 112.07 108.108 111.558 108.108ZM115.112 104.688C115.112 104.008 115.248 103.412 115.52 102.9C115.8 102.38 116.184 101.98 116.672 101.7C117.16 101.42 117.72 101.28 118.352 101.28C119.152 101.28 119.812 101.472 120.332 101.856C120.86 102.232 121.216 102.772 121.4 103.476H119.924C119.804 103.148 119.612 102.892 119.348 102.708C119.084 102.524 118.752 102.432 118.352 102.432C117.792 102.432 117.344 102.632 117.008 103.032C116.68 103.424 116.516 103.976 116.516 104.688C116.516 105.4 116.68 105.956 117.008 106.356C117.344 106.756 117.792 106.956 118.352 106.956C119.144 106.956 119.668 106.608 119.924 105.912H121.4C121.208 106.584 120.848 107.12 120.32 107.52C119.792 107.912 119.136 108.108 118.352 108.108C117.72 108.108 117.16 107.968 116.672 107.688C116.184 107.4 115.8 107 115.52 106.488C115.248 105.968 115.112 105.368 115.112 104.688ZM124.131 102.348C124.331 102.012 124.595 101.752 124.923 101.568C125.259 101.376 125.655 101.28 126.111 101.28V102.696H125.763C125.227 102.696 124.819 102.832 124.539 103.104C124.267 103.376 124.131 103.848 124.131 104.52V108H122.763V101.388H124.131V102.348ZM128.065 100.512C127.817 100.512 127.609 100.428 127.441 100.26C127.273 100.092 127.189 99.884 127.189 99.636C127.189 99.388 127.273 99.18 127.441 99.012C127.609 98.844 127.817 98.76 128.065 98.76C128.305 98.76 128.509 98.844 128.677 99.012C128.845 99.18 128.929 99.388 128.929 99.636C128.929 99.884 128.845 100.092 128.677 100.26C128.509 100.428 128.305 100.512 128.065 100.512ZM128.737 101.388V108H127.369V101.388H128.737ZM131.901 102.36C132.133 102.056 132.449 101.8 132.849 101.592C133.249 101.384 133.701 101.28 134.205 101.28C134.781 101.28 135.305 101.424 135.777 101.712C136.257 101.992 136.633 102.388 136.905 102.9C137.177 103.412 137.313 104 137.313 104.664C137.313 105.328 137.177 105.924 136.905 106.452C136.633 106.972 136.257 107.38 135.777 107.676C135.305 107.964 134.781 108.108 134.205 108.108C133.701 108.108 133.253 108.008 132.861 107.808C132.469 107.6 132.149 107.344 131.901 107.04V111.144H130.533V101.388H131.901V102.36ZM135.921 104.664C135.921 104.208 135.825 103.816 135.633 103.488C135.449 103.152 135.201 102.9 134.889 102.732C134.585 102.556 134.257 102.468 133.905 102.468C133.561 102.468 133.233 102.556 132.921 102.732C132.617 102.908 132.369 103.164 132.177 103.5C131.993 103.836 131.901 104.232 131.901 104.688C131.901 105.144 131.993 105.544 132.177 105.888C132.369 106.224 132.617 106.48 132.921 106.656C133.233 106.832 133.561 106.92 133.905 106.92C134.257 106.92 134.585 106.832 134.889 106.656C135.201 106.472 135.449 106.208 135.633 105.864C135.825 105.52 135.921 105.12 135.921 104.664ZM140.262 102.504V106.164C140.262 106.412 140.318 106.592 140.43 106.704C140.55 106.808 140.75 106.86 141.03 106.86H141.87V108H140.79C140.174 108 139.702 107.856 139.374 107.568C139.046 107.28 138.882 106.812 138.882 106.164V102.504H138.102V101.388H138.882V99.744H140.262V101.388H141.87V102.504H140.262ZM143.826 100.512C143.578 100.512 143.37 100.428 143.202 100.26C143.034 100.092 142.95 99.884 142.95 99.636C142.95 99.388 143.034 99.18 143.202 99.012C143.37 98.844 143.578 98.76 143.826 98.76C144.066 98.76 144.27 98.844 144.438 99.012C144.606 99.18 144.69 99.388 144.69 99.636C144.69 99.884 144.606 100.092 144.438 100.26C144.27 100.428 144.066 100.512 143.826 100.512ZM144.498 101.388V108H143.13V101.388H144.498ZM149.163 108.108C148.539 108.108 147.975 107.968 147.471 107.688C146.967 107.4 146.571 107 146.283 106.488C145.995 105.968 145.851 105.368 145.851 104.688C145.851 104.016 145.999 103.42 146.295 102.9C146.591 102.38 146.995 101.98 147.507 101.7C148.019 101.42 148.591 101.28 149.223 101.28C149.855 101.28 150.427 101.42 150.939 101.7C151.451 101.98 151.855 102.38 152.151 102.9C152.447 103.42 152.595 104.016 152.595 104.688C152.595 105.36 152.443 105.956 152.139 106.476C151.835 106.996 151.419 107.4 150.891 107.688C150.371 107.968 149.795 108.108 149.163 108.108ZM149.163 106.92C149.515 106.92 149.843 106.836 150.147 106.668C150.459 106.5 150.711 106.248 150.903 105.912C151.095 105.576 151.191 105.168 151.191 104.688C151.191 104.208 151.099 103.804 150.915 103.476C150.731 103.14 150.487 102.888 150.183 102.72C149.879 102.552 149.551 102.468 149.199 102.468C148.847 102.468 148.519 102.552 148.215 102.72C147.919 102.888 147.683 103.14 147.507 103.476C147.331 103.804 147.243 104.208 147.243 104.688C147.243 105.4 147.423 105.952 147.783 106.344C148.151 106.728 148.611 106.92 149.163 106.92ZM157.283 101.28C157.803 101.28 158.267 101.388 158.675 101.604C159.091 101.82 159.415 102.14 159.647 102.564C159.879 102.988 159.995 103.5 159.995 104.1V108H158.639V104.304C158.639 103.712 158.491 103.26 158.195 102.948C157.899 102.628 157.495 102.468 156.983 102.468C156.471 102.468 156.063 102.628 155.759 102.948C155.463 103.26 155.315 103.712 155.315 104.304V108H153.947V101.388H155.315V102.144C155.539 101.872 155.823 101.66 156.167 101.508C156.519 101.356 156.891 101.28 157.283 101.28ZM166.453 102.504V106.164C166.453 106.412 166.509 106.592 166.621 106.704C166.741 106.808 166.941 106.86 167.221 106.86H168.061V108H166.981C166.365 108 165.893 107.856 165.565 107.568C165.237 107.28 165.073 106.812 165.073 106.164V102.504H164.293V101.388H165.073V99.744H166.453V101.388H168.061V102.504H166.453ZM172.742 101.28C173.246 101.28 173.694 101.388 174.086 101.604C174.486 101.82 174.798 102.14 175.022 102.564C175.254 102.988 175.37 103.5 175.37 104.1V108H174.014V104.304C174.014 103.712 173.866 103.26 173.57 102.948C173.274 102.628 172.87 102.468 172.358 102.468C171.846 102.468 171.438 102.628 171.134 102.948C170.838 103.26 170.69 103.712 170.69 104.304V108H169.322V99.12H170.69V102.156C170.922 101.876 171.214 101.66 171.566 101.508C171.926 101.356 172.318 101.28 172.742 101.28ZM176.659 104.664C176.659 104 176.795 103.412 177.067 102.9C177.347 102.388 177.723 101.992 178.195 101.712C178.675 101.424 179.203 101.28 179.779 101.28C180.299 101.28 180.751 101.384 181.135 101.592C181.527 101.792 181.839 102.044 182.071 102.348V101.388H183.451V108H182.071V107.016C181.839 107.328 181.523 107.588 181.123 107.796C180.723 108.004 180.267 108.108 179.755 108.108C179.187 108.108 178.667 107.964 178.195 107.676C177.723 107.38 177.347 106.972 177.067 106.452C176.795 105.924 176.659 105.328 176.659 104.664ZM182.071 104.688C182.071 104.232 181.975 103.836 181.783 103.5C181.599 103.164 181.355 102.908 181.051 102.732C180.747 102.556 180.419 102.468 180.067 102.468C179.715 102.468 179.387 102.556 179.083 102.732C178.779 102.9 178.531 103.152 178.339 103.488C178.155 103.816 178.063 104.208 178.063 104.664C178.063 105.12 178.155 105.52 178.339 105.864C178.531 106.208 178.779 106.472 179.083 106.656C179.395 106.832 179.723 106.92 180.067 106.92C180.419 106.92 180.747 106.832 181.051 106.656C181.355 106.48 181.599 106.224 181.783 105.888C181.975 105.544 182.071 105.144 182.071 104.688ZM186.844 102.504V106.164C186.844 106.412 186.9 106.592 187.012 106.704C187.132 106.808 187.332 106.86 187.612 106.86H188.452V108H187.372C186.756 108 186.284 107.856 185.956 107.568C185.628 107.28 185.464 106.812 185.464 106.164V102.504H184.684V101.388H185.464V99.744H186.844V101.388H188.452V102.504H186.844ZM201.71 101.388L199.658 108H198.218L196.886 103.116L195.554 108H194.114L192.05 101.388H193.442L194.822 106.704L196.226 101.388H197.654L198.998 106.68L200.366 101.388H201.71ZM203.428 100.512C203.18 100.512 202.972 100.428 202.804 100.26C202.636 100.092 202.552 99.884 202.552 99.636C202.552 99.388 202.636 99.18 202.804 99.012C202.972 98.844 203.18 98.76 203.428 98.76C203.668 98.76 203.872 98.844 204.04 99.012C204.208 99.18 204.292 99.388 204.292 99.636C204.292 99.884 204.208 100.092 204.04 100.26C203.872 100.428 203.668 100.512 203.428 100.512ZM204.1 101.388V108H202.732V101.388H204.1ZM207.264 99.12V108H205.896V99.12H207.264ZM210.428 99.12V108H209.06V99.12H210.428ZM224.221 101.388L222.169 108H220.729L219.397 103.116L218.065 108H216.625L214.561 101.388H215.953L217.333 106.704L218.737 101.388H220.165L221.509 106.68L222.877 101.388H224.221ZM226.612 102.348C226.812 102.012 227.076 101.752 227.404 101.568C227.74 101.376 228.136 101.28 228.592 101.28V102.696H228.244C227.708 102.696 227.3 102.832 227.02 103.104C226.748 103.376 226.612 103.848 226.612 104.52V108H225.244V101.388H226.612V102.348ZM229.393 104.664C229.393 104 229.529 103.412 229.801 102.9C230.081 102.388 230.457 101.992 230.929 101.712C231.409 101.424 231.937 101.28 232.513 101.28C233.033 101.28 233.485 101.384 233.869 101.592C234.261 101.792 234.573 102.044 234.805 102.348V101.388H236.185V108H234.805V107.016C234.573 107.328 234.257 107.588 233.857 107.796C233.457 108.004 233.001 108.108 232.489 108.108C231.921 108.108 231.401 107.964 230.929 107.676C230.457 107.38 230.081 106.972 229.801 106.452C229.529 105.924 229.393 105.328 229.393 104.664ZM234.805 104.688C234.805 104.232 234.709 103.836 234.517 103.5C234.333 103.164 234.089 102.908 233.785 102.732C233.481 102.556 233.153 102.468 232.801 102.468C232.449 102.468 232.121 102.556 231.817 102.732C231.513 102.9 231.265 103.152 231.073 103.488C230.889 103.816 230.797 104.208 230.797 104.664C230.797 105.12 230.889 105.52 231.073 105.864C231.265 106.208 231.513 106.472 231.817 106.656C232.129 106.832 232.457 106.92 232.801 106.92C233.153 106.92 233.481 106.832 233.785 106.656C234.089 106.48 234.333 106.224 234.517 105.888C234.709 105.544 234.805 105.144 234.805 104.688ZM239.35 102.36C239.582 102.056 239.898 101.8 240.298 101.592C240.698 101.384 241.15 101.28 241.654 101.28C242.23 101.28 242.754 101.424 243.226 101.712C243.706 101.992 244.082 102.388 244.354 102.9C244.626 103.412 244.762 104 244.762 104.664C244.762 105.328 244.626 105.924 244.354 106.452C244.082 106.972 243.706 107.38 243.226 107.676C242.754 107.964 242.23 108.108 241.654 108.108C241.15 108.108 240.702 108.008 240.31 107.808C239.918 107.6 239.598 107.344 239.35 107.04V111.144H237.982V101.388H239.35V102.36ZM243.37 104.664C243.37 104.208 243.274 103.816 243.082 103.488C242.898 103.152 242.65 102.9 242.338 102.732C242.034 102.556 241.706 102.468 241.354 102.468C241.01 102.468 240.682 102.556 240.37 102.732C240.066 102.908 239.818 103.164 239.626 103.5C239.442 103.836 239.35 104.232 239.35 104.688C239.35 105.144 239.442 105.544 239.626 105.888C239.818 106.224 240.066 106.48 240.37 106.656C240.682 106.832 241.01 106.92 241.354 106.92C241.706 106.92 242.034 106.832 242.338 106.656C242.65 106.472 242.898 106.208 243.082 105.864C243.274 105.52 243.37 105.12 243.37 104.664ZM24.444 122.664C24.444 122 24.58 121.412 24.852 120.9C25.132 120.388 25.508 119.992 25.98 119.712C26.46 119.424 26.988 119.28 27.564 119.28C28.084 119.28 28.536 119.384 28.92 119.592C29.312 119.792 29.624 120.044 29.856 120.348V119.388H31.236V126H29.856V125.016C29.624 125.328 29.308 125.588 28.908 125.796C28.508 126.004 28.052 126.108 27.54 126.108C26.972 126.108 26.452 125.964 25.98 125.676C25.508 125.38 25.132 124.972 24.852 124.452C24.58 123.924 24.444 123.328 24.444 122.664ZM29.856 122.688C29.856 122.232 29.76 121.836 29.568 121.5C29.384 121.164 29.14 120.908 28.836 120.732C28.532 120.556 28.204 120.468 27.852 120.468C27.5 120.468 27.172 120.556 26.868 120.732C26.564 120.9 26.316 121.152 26.124 121.488C25.94 121.816 25.848 122.208 25.848 122.664C25.848 123.12 25.94 123.52 26.124 123.864C26.316 124.208 26.564 124.472 26.868 124.656C27.18 124.832 27.508 124.92 27.852 124.92C28.204 124.92 28.532 124.832 28.836 124.656C29.14 124.48 29.384 124.224 29.568 123.888C29.76 123.544 29.856 123.144 29.856 122.688ZM39.0208 119.388V126H37.6528V125.22C37.4368 125.492 37.1528 125.708 36.8008 125.868C36.4568 126.02 36.0888 126.096 35.6968 126.096C35.1768 126.096 34.7088 125.988 34.2928 125.772C33.8848 125.556 33.5608 125.236 33.3208 124.812C33.0888 124.388 32.9728 123.876 32.9728 123.276V119.388H34.3288V123.072C34.3288 123.664 34.4768 124.12 34.7728 124.44C35.0688 124.752 35.4728 124.908 35.9848 124.908C36.4968 124.908 36.9008 124.752 37.1968 124.44C37.5008 124.12 37.6528 123.664 37.6528 123.072V119.388H39.0208ZM42.4218 120.504V124.164C42.4218 124.412 42.4778 124.592 42.5898 124.704C42.7098 124.808 42.9098 124.86 43.1898 124.86H44.0298V126H42.9498C42.3338 126 41.8618 125.856 41.5338 125.568C41.2058 125.28 41.0418 124.812 41.0418 124.164V120.504H40.2618V119.388H41.0418V117.744H42.4218V119.388H44.0298V120.504H42.4218ZM53.2946 119.28C53.8146 119.28 54.2786 119.388 54.6866 119.604C55.1026 119.82 55.4266 120.14 55.6586 120.564C55.8986 120.988 56.0186 121.5 56.0186 122.1V126H54.6626V122.304C54.6626 121.712 54.5146 121.26 54.2186 120.948C53.9226 120.628 53.5186 120.468 53.0066 120.468C52.4946 120.468 52.0866 120.628 51.7826 120.948C51.4866 121.26 51.3386 121.712 51.3386 122.304V126H49.9826V122.304C49.9826 121.712 49.8346 121.26 49.5386 120.948C49.2426 120.628 48.8386 120.468 48.3266 120.468C47.8146 120.468 47.4066 120.628 47.1026 120.948C46.8066 121.26 46.6586 121.712 46.6586 122.304V126H45.2906V119.388H46.6586V120.144C46.8826 119.872 47.1666 119.66 47.5106 119.508C47.8546 119.356 48.2226 119.28 48.6146 119.28C49.1426 119.28 49.6146 119.392 50.0306 119.616C50.4466 119.84 50.7666 120.164 50.9906 120.588C51.1906 120.188 51.5026 119.872 51.9266 119.64C52.3506 119.4 52.8066 119.28 53.2946 119.28ZM57.3034 122.664C57.3034 122 57.4394 121.412 57.7114 120.9C57.9914 120.388 58.3674 119.992 58.8394 119.712C59.3194 119.424 59.8474 119.28 60.4234 119.28C60.9434 119.28 61.3954 119.384 61.7794 119.592C62.1714 119.792 62.4834 120.044 62.7154 120.348V119.388H64.0954V126H62.7154V125.016C62.4834 125.328 62.1674 125.588 61.7674 125.796C61.3674 126.004 60.9114 126.108 60.3994 126.108C59.8314 126.108 59.3114 125.964 58.8394 125.676C58.3674 125.38 57.9914 124.972 57.7114 124.452C57.4394 123.924 57.3034 123.328 57.3034 122.664ZM62.7154 122.688C62.7154 122.232 62.6194 121.836 62.4274 121.5C62.2434 121.164 61.9994 120.908 61.6954 120.732C61.3914 120.556 61.0634 120.468 60.7114 120.468C60.3594 120.468 60.0314 120.556 59.7274 120.732C59.4234 120.9 59.1754 121.152 58.9834 121.488C58.7994 121.816 58.7074 122.208 58.7074 122.664C58.7074 123.12 58.7994 123.52 58.9834 123.864C59.1754 124.208 59.4234 124.472 59.7274 124.656C60.0394 124.832 60.3674 124.92 60.7114 124.92C61.0634 124.92 61.3914 124.832 61.6954 124.656C61.9994 124.48 62.2434 124.224 62.4274 123.888C62.6194 123.544 62.7154 123.144 62.7154 122.688ZM67.4882 120.504V124.164C67.4882 124.412 67.5442 124.592 67.6562 124.704C67.7762 124.808 67.9762 124.86 68.2562 124.86H69.0962V126H68.0162C67.4002 126 66.9282 125.856 66.6002 125.568C66.2722 125.28 66.1082 124.812 66.1082 124.164V120.504H65.3282V119.388H66.1082V117.744H67.4882V119.388H69.0962V120.504H67.4882ZM71.053 118.512C70.805 118.512 70.597 118.428 70.429 118.26C70.261 118.092 70.177 117.884 70.177 117.636C70.177 117.388 70.261 117.18 70.429 117.012C70.597 116.844 70.805 116.76 71.053 116.76C71.293 116.76 71.497 116.844 71.665 117.012C71.833 117.18 71.917 117.388 71.917 117.636C71.917 117.884 71.833 118.092 71.665 118.26C71.497 118.428 71.293 118.512 71.053 118.512ZM71.725 119.388V126H70.357V119.388H71.725ZM73.0651 122.688C73.0651 122.008 73.2011 121.412 73.4731 120.9C73.7531 120.38 74.1371 119.98 74.6251 119.7C75.1131 119.42 75.6731 119.28 76.3051 119.28C77.1051 119.28 77.7651 119.472 78.2851 119.856C78.8131 120.232 79.1691 120.772 79.3531 121.476H77.8771C77.7571 121.148 77.5651 120.892 77.3011 120.708C77.0371 120.524 76.7051 120.432 76.3051 120.432C75.7451 120.432 75.2971 120.632 74.9611 121.032C74.6331 121.424 74.4691 121.976 74.4691 122.688C74.4691 123.4 74.6331 123.956 74.9611 124.356C75.2971 124.756 75.7451 124.956 76.3051 124.956C77.0971 124.956 77.6211 124.608 77.8771 123.912H79.3531C79.1611 124.584 78.8011 125.12 78.2731 125.52C77.7451 125.912 77.0891 126.108 76.3051 126.108C75.6731 126.108 75.1131 125.968 74.6251 125.688C74.1371 125.4 73.7531 125 73.4731 124.488C73.2011 123.968 73.0651 123.368 73.0651 122.688ZM80.2604 122.664C80.2604 122 80.3964 121.412 80.6684 120.9C80.9484 120.388 81.3244 119.992 81.7964 119.712C82.2764 119.424 82.8044 119.28 83.3804 119.28C83.9004 119.28 84.3524 119.384 84.7364 119.592C85.1284 119.792 85.4404 120.044 85.6724 120.348V119.388H87.0524V126H85.6724V125.016C85.4404 125.328 85.1244 125.588 84.7244 125.796C84.3244 126.004 83.8684 126.108 83.3564 126.108C82.7884 126.108 82.2684 125.964 81.7964 125.676C81.3244 125.38 80.9484 124.972 80.6684 124.452C80.3964 123.924 80.2604 123.328 80.2604 122.664ZM85.6724 122.688C85.6724 122.232 85.5764 121.836 85.3844 121.5C85.2004 121.164 84.9564 120.908 84.6524 120.732C84.3484 120.556 84.0204 120.468 83.6684 120.468C83.3164 120.468 82.9884 120.556 82.6844 120.732C82.3804 120.9 82.1324 121.152 81.9404 121.488C81.7564 121.816 81.6644 122.208 81.6644 122.664C81.6644 123.12 81.7564 123.52 81.9404 123.864C82.1324 124.208 82.3804 124.472 82.6844 124.656C82.9964 124.832 83.3244 124.92 83.6684 124.92C84.0204 124.92 84.3484 124.832 84.6524 124.656C84.9564 124.48 85.2004 124.224 85.3844 123.888C85.5764 123.544 85.6724 123.144 85.6724 122.688ZM90.2172 117.12V126H88.8492V117.12H90.2172ZM93.3813 117.12V126H92.0133V117.12H93.3813ZM101.129 119.388L97.0733 129.108H95.6573L97.0013 125.892L94.3973 119.388H95.9213L97.7813 124.428L99.7133 119.388H101.129ZM105.975 118.512C105.727 118.512 105.519 118.428 105.351 118.26C105.183 118.092 105.099 117.884 105.099 117.636C105.099 117.388 105.183 117.18 105.351 117.012C105.519 116.844 105.727 116.76 105.975 116.76C106.215 116.76 106.419 116.844 106.587 117.012C106.755 117.18 106.839 117.388 106.839 117.636C106.839 117.884 106.755 118.092 106.587 118.26C106.419 118.428 106.215 118.512 105.975 118.512ZM106.647 119.388V126H105.279V119.388H106.647ZM111.779 119.28C112.299 119.28 112.763 119.388 113.171 119.604C113.587 119.82 113.911 120.14 114.143 120.564C114.375 120.988 114.491 121.5 114.491 122.1V126H113.135V122.304C113.135 121.712 112.987 121.26 112.691 120.948C112.395 120.628 111.991 120.468 111.479 120.468C110.967 120.468 110.559 120.628 110.255 120.948C109.959 121.26 109.811 121.712 109.811 122.304V126H108.443V119.388H109.811V120.144C110.035 119.872 110.319 119.66 110.663 119.508C111.015 119.356 111.387 119.28 111.779 119.28ZM117.832 120.504V124.164C117.832 124.412 117.888 124.592 118 124.704C118.12 124.808 118.32 124.86 118.6 124.86H119.44V126H118.36C117.744 126 117.272 125.856 116.944 125.568C116.616 125.28 116.452 124.812 116.452 124.164V120.504H115.672V119.388H116.452V117.744H117.832V119.388H119.44V120.504H117.832ZM123.569 126.108C122.945 126.108 122.381 125.968 121.877 125.688C121.373 125.4 120.977 125 120.689 124.488C120.401 123.968 120.257 123.368 120.257 122.688C120.257 122.016 120.405 121.42 120.701 120.9C120.997 120.38 121.401 119.98 121.913 119.7C122.425 119.42 122.997 119.28 123.629 119.28C124.261 119.28 124.833 119.42 125.345 119.7C125.857 119.98 126.261 120.38 126.557 120.9C126.853 121.42 127.001 122.016 127.001 122.688C127.001 123.36 126.849 123.956 126.545 124.476C126.241 124.996 125.825 125.4 125.297 125.688C124.777 125.968 124.201 126.108 123.569 126.108ZM123.569 124.92C123.921 124.92 124.249 124.836 124.553 124.668C124.865 124.5 125.117 124.248 125.309 123.912C125.501 123.576 125.597 123.168 125.597 122.688C125.597 122.208 125.505 121.804 125.321 121.476C125.137 121.14 124.893 120.888 124.589 120.72C124.285 120.552 123.957 120.468 123.605 120.468C123.253 120.468 122.925 120.552 122.621 120.72C122.325 120.888 122.089 121.14 121.913 121.476C121.737 121.804 121.649 122.208 121.649 122.688C121.649 123.4 121.829 123.952 122.189 124.344C122.557 124.728 123.017 124.92 123.569 124.92ZM131.014 122.664C131.014 122 131.15 121.412 131.422 120.9C131.702 120.388 132.078 119.992 132.55 119.712C133.03 119.424 133.558 119.28 134.134 119.28C134.654 119.28 135.106 119.384 135.49 119.592C135.882 119.792 136.194 120.044 136.426 120.348V119.388H137.806V126H136.426V125.016C136.194 125.328 135.878 125.588 135.478 125.796C135.078 126.004 134.622 126.108 134.11 126.108C133.542 126.108 133.022 125.964 132.55 125.676C132.078 125.38 131.702 124.972 131.422 124.452C131.15 123.924 131.014 123.328 131.014 122.664ZM136.426 122.688C136.426 122.232 136.33 121.836 136.138 121.5C135.954 121.164 135.71 120.908 135.406 120.732C135.102 120.556 134.774 120.468 134.422 120.468C134.07 120.468 133.742 120.556 133.438 120.732C133.134 120.9 132.886 121.152 132.694 121.488C132.51 121.816 132.418 122.208 132.418 122.664C132.418 123.12 132.51 123.52 132.694 123.864C132.886 124.208 133.134 124.472 133.438 124.656C133.75 124.832 134.078 124.92 134.422 124.92C134.774 124.92 135.102 124.832 135.406 124.656C135.71 124.48 135.954 124.224 136.138 123.888C136.33 123.544 136.426 123.144 136.426 122.688ZM146.056 119.28C146.576 119.28 147.04 119.388 147.448 119.604C147.864 119.82 148.188 120.14 148.42 120.564C148.652 120.988 148.768 121.5 148.768 122.1V126H147.412V122.304C147.412 121.712 147.264 121.26 146.968 120.948C146.672 120.628 146.268 120.468 145.756 120.468C145.244 120.468 144.836 120.628 144.532 120.948C144.236 121.26 144.088 121.712 144.088 122.304V126H142.72V119.388H144.088V120.144C144.312 119.872 144.596 119.66 144.94 119.508C145.292 119.356 145.664 119.28 146.056 119.28ZM156.573 122.532C156.573 122.78 156.557 123.004 156.525 123.204H151.473C151.513 123.732 151.709 124.156 152.061 124.476C152.413 124.796 152.845 124.956 153.357 124.956C154.093 124.956 154.613 124.648 154.917 124.032H156.393C156.193 124.64 155.829 125.14 155.301 125.532C154.781 125.916 154.133 126.108 153.357 126.108C152.725 126.108 152.157 125.968 151.653 125.688C151.157 125.4 150.765 125 150.477 124.488C150.197 123.968 150.057 123.368 150.057 122.688C150.057 122.008 150.193 121.412 150.465 120.9C150.745 120.38 151.133 119.98 151.629 119.7C152.133 119.42 152.709 119.28 153.357 119.28C153.981 119.28 154.537 119.416 155.025 119.688C155.513 119.96 155.893 120.344 156.165 120.84C156.437 121.328 156.573 121.892 156.573 122.532ZM155.145 122.1C155.137 121.596 154.957 121.192 154.605 120.888C154.253 120.584 153.817 120.432 153.297 120.432C152.825 120.432 152.421 120.584 152.085 120.888C151.749 121.184 151.549 121.588 151.485 122.1H155.145ZM166.8 119.388L164.748 126H163.308L161.976 121.116L160.644 126H159.204L157.14 119.388H158.532L159.912 124.704L161.316 119.388H162.744L164.088 124.68L165.456 119.388H166.8ZM172.307 117.12V126H170.939V117.12H172.307ZM174.799 118.512C174.551 118.512 174.343 118.428 174.175 118.26C174.007 118.092 173.923 117.884 173.923 117.636C173.923 117.388 174.007 117.18 174.175 117.012C174.343 116.844 174.551 116.76 174.799 116.76C175.039 116.76 175.243 116.844 175.411 117.012C175.579 117.18 175.663 117.388 175.663 117.636C175.663 117.884 175.579 118.092 175.411 118.26C175.243 118.428 175.039 118.512 174.799 118.512ZM175.471 119.388V126H174.103V119.388H175.471ZM180.603 119.28C181.123 119.28 181.587 119.388 181.995 119.604C182.411 119.82 182.735 120.14 182.967 120.564C183.199 120.988 183.315 121.5 183.315 122.1V126H181.959V122.304C181.959 121.712 181.811 121.26 181.515 120.948C181.219 120.628 180.815 120.468 180.303 120.468C179.791 120.468 179.383 120.628 179.079 120.948C178.783 121.26 178.635 121.712 178.635 122.304V126H177.267V119.388H178.635V120.144C178.859 119.872 179.143 119.66 179.487 119.508C179.839 119.356 180.211 119.28 180.603 119.28ZM191.12 122.532C191.12 122.78 191.104 123.004 191.072 123.204H186.02C186.06 123.732 186.256 124.156 186.608 124.476C186.96 124.796 187.392 124.956 187.904 124.956C188.64 124.956 189.16 124.648 189.464 124.032H190.94C190.74 124.64 190.376 125.14 189.848 125.532C189.328 125.916 188.68 126.108 187.904 126.108C187.272 126.108 186.704 125.968 186.2 125.688C185.704 125.4 185.312 125 185.024 124.488C184.744 123.968 184.604 123.368 184.604 122.688C184.604 122.008 184.74 121.412 185.012 120.9C185.292 120.38 185.68 119.98 186.176 119.7C186.68 119.42 187.256 119.28 187.904 119.28C188.528 119.28 189.084 119.416 189.572 119.688C190.06 119.96 190.44 120.344 190.712 120.84C190.984 121.328 191.12 121.892 191.12 122.532ZM189.692 122.1C189.684 121.596 189.504 121.192 189.152 120.888C188.8 120.584 188.364 120.432 187.844 120.432C187.372 120.432 186.968 120.584 186.632 120.888C186.296 121.184 186.096 121.588 186.032 122.1H189.692Z" fill="#221C1D"/>
<path d="M32.624 143.388V151H31.623V145.324L29.093 151H28.389L25.848 145.313V151H24.847V143.388H25.925L28.741 149.68L31.557 143.388H32.624ZM33.9476 147.964C33.9476 147.348 34.0723 146.809 34.3216 146.347C34.5709 145.878 34.9119 145.515 35.3446 145.258C35.7846 145.001 36.2723 144.873 36.8076 144.873C37.3356 144.873 37.7939 144.987 38.1826 145.214C38.5713 145.441 38.8609 145.727 39.0516 146.072V144.972H40.0636V151H39.0516V149.878C38.8536 150.23 38.5566 150.523 38.1606 150.758C37.7719 150.985 37.3173 151.099 36.7966 151.099C36.2613 151.099 35.7773 150.967 35.3446 150.703C34.9119 150.439 34.5709 150.069 34.3216 149.592C34.0723 149.115 33.9476 148.573 33.9476 147.964ZM39.0516 147.975C39.0516 147.52 38.9599 147.124 38.7766 146.787C38.5933 146.45 38.3439 146.193 38.0286 146.017C37.7206 145.834 37.3796 145.742 37.0056 145.742C36.6316 145.742 36.2906 145.83 35.9826 146.006C35.6746 146.182 35.4289 146.439 35.2456 146.776C35.0623 147.113 34.9706 147.509 34.9706 147.964C34.9706 148.426 35.0623 148.829 35.2456 149.174C35.4289 149.511 35.6746 149.772 35.9826 149.955C36.2906 150.131 36.6316 150.219 37.0056 150.219C37.3796 150.219 37.7206 150.131 38.0286 149.955C38.3439 149.772 38.5933 149.511 38.7766 149.174C38.9599 148.829 39.0516 148.43 39.0516 147.975ZM42.7562 145.951C42.9322 145.606 43.1815 145.339 43.5042 145.148C43.8342 144.957 44.2339 144.862 44.7032 144.862V145.896H44.4392C43.3172 145.896 42.7562 146.505 42.7562 147.722V151H41.7552V144.972H42.7562V145.951ZM48.3843 149.229V148.47L52.2453 143.124H53.4443V148.36H54.5443V149.229H53.4443V151H52.4543V149.229H48.3843ZM52.4983 144.169L49.5393 148.36H52.4983V144.169ZM56.7433 149.614L55.5113 152.573H54.8403L55.6433 149.614H56.7433ZM60.5366 150.197C61.4679 149.449 62.1976 148.837 62.7256 148.36C63.2536 147.876 63.6973 147.374 64.0566 146.853C64.4233 146.325 64.6066 145.808 64.6066 145.302C64.6066 144.825 64.4893 144.451 64.2546 144.18C64.0273 143.901 63.6569 143.762 63.1436 143.762C62.6449 143.762 62.2563 143.92 61.9776 144.235C61.7063 144.543 61.5596 144.957 61.5376 145.478H60.5696C60.5989 144.657 60.8483 144.022 61.3176 143.575C61.7869 143.128 62.3919 142.904 63.1326 142.904C63.8879 142.904 64.4856 143.113 64.9256 143.531C65.3729 143.949 65.5966 144.525 65.5966 145.258C65.5966 145.867 65.4133 146.461 65.0466 147.04C64.6873 147.612 64.2766 148.118 63.8146 148.558C63.3526 148.991 62.7623 149.497 62.0436 150.076H65.8276V150.912H60.5366V150.197ZM66.9847 146.941C66.9847 145.68 67.1901 144.697 67.6007 143.993C68.0114 143.282 68.7301 142.926 69.7567 142.926C70.7761 142.926 71.4911 143.282 71.9017 143.993C72.3124 144.697 72.5177 145.68 72.5177 146.941C72.5177 148.224 72.3124 149.222 71.9017 149.933C71.4911 150.644 70.7761 151 69.7567 151C68.7301 151 68.0114 150.644 67.6007 149.933C67.1901 149.222 66.9847 148.224 66.9847 146.941ZM71.5277 146.941C71.5277 146.303 71.4837 145.764 71.3957 145.324C71.3151 144.877 71.1427 144.517 70.8787 144.246C70.6221 143.975 70.2481 143.839 69.7567 143.839C69.2581 143.839 68.8767 143.975 68.6127 144.246C68.3561 144.517 68.1837 144.877 68.0957 145.324C68.0151 145.764 67.9747 146.303 67.9747 146.941C67.9747 147.601 68.0151 148.155 68.0957 148.602C68.1837 149.049 68.3561 149.409 68.6127 149.68C68.8767 149.951 69.2581 150.087 69.7567 150.087C70.2481 150.087 70.6221 149.951 70.8787 149.68C71.1427 149.409 71.3151 149.049 71.3957 148.602C71.4837 148.155 71.5277 147.601 71.5277 146.941ZM73.771 150.197C74.7023 149.449 75.432 148.837 75.96 148.36C76.488 147.876 76.9316 147.374 77.291 146.853C77.6576 146.325 77.841 145.808 77.841 145.302C77.841 144.825 77.7236 144.451 77.489 144.18C77.2616 143.901 76.8913 143.762 76.378 143.762C75.8793 143.762 75.4906 143.92 75.212 144.235C74.9406 144.543 74.794 144.957 74.772 145.478H73.804C73.8333 144.657 74.0826 144.022 74.552 143.575C75.0213 143.128 75.6263 142.904 76.367 142.904C77.1223 142.904 77.72 143.113 78.16 143.531C78.6073 143.949 78.831 144.525 78.831 145.258C78.831 145.867 78.6476 146.461 78.281 147.04C77.9216 147.612 77.511 148.118 77.049 148.558C76.587 148.991 75.9966 149.497 75.278 150.076H79.062V150.912H73.771V150.197ZM85.2901 143.916H81.4291V146.424C81.5978 146.189 81.8471 145.999 82.1771 145.852C82.5071 145.698 82.8628 145.621 83.2441 145.621C83.8528 145.621 84.3478 145.749 84.7291 146.006C85.1104 146.255 85.3818 146.582 85.5431 146.985C85.7118 147.381 85.7961 147.803 85.7961 148.25C85.7961 148.778 85.6971 149.251 85.4991 149.669C85.3011 150.087 84.9968 150.417 84.5861 150.659C84.1828 150.901 83.6804 151.022 83.0791 151.022C82.3091 151.022 81.6858 150.824 81.2091 150.428C80.7324 150.032 80.4428 149.504 80.3401 148.844H81.3191C81.4144 149.262 81.6161 149.588 81.9241 149.823C82.2321 150.058 82.6208 150.175 83.0901 150.175C83.6694 150.175 84.1058 150.003 84.3991 149.658C84.6924 149.306 84.8391 148.844 84.8391 148.272C84.8391 147.7 84.6924 147.26 84.3991 146.952C84.1058 146.637 83.6731 146.479 83.1011 146.479C82.7124 146.479 82.3714 146.574 82.0781 146.765C81.7921 146.948 81.5831 147.201 81.4511 147.524H80.5051V143.036H85.2901V143.916Z" fill="#666666"/>
<rect x="16.5" y="180.5" width="265" height="89" rx="3.5" fill="white"/>
<rect x="16.5" y="180.5" width="265" height="89" rx="3.5" stroke="#666666"/>
<rect x="24" y="188" width="35" height="23" rx="11.5" fill="#B8EBB0"/>
<path d="M33.68 202.26H36.12V203H32.77V196.03H33.68V202.26ZM39.4764 203.09C38.9631 203.09 38.4964 202.973 38.0764 202.74C37.6631 202.507 37.3364 202.177 37.0964 201.75C36.8631 201.317 36.7464 200.817 36.7464 200.25C36.7464 199.69 36.8664 199.197 37.1064 198.77C37.3531 198.337 37.6864 198.007 38.1064 197.78C38.5264 197.547 38.9964 197.43 39.5164 197.43C40.0364 197.43 40.5064 197.547 40.9264 197.78C41.3464 198.007 41.6764 198.333 41.9164 198.76C42.1631 199.187 42.2864 199.683 42.2864 200.25C42.2864 200.817 42.1597 201.317 41.9064 201.75C41.6597 202.177 41.3231 202.507 40.8964 202.74C40.4697 202.973 39.9964 203.09 39.4764 203.09ZM39.4764 202.29C39.8031 202.29 40.1097 202.213 40.3964 202.06C40.6831 201.907 40.9131 201.677 41.0864 201.37C41.2664 201.063 41.3564 200.69 41.3564 200.25C41.3564 199.81 41.2697 199.437 41.0964 199.13C40.9231 198.823 40.6964 198.597 40.4164 198.45C40.1364 198.297 39.8331 198.22 39.5064 198.22C39.1731 198.22 38.8664 198.297 38.5864 198.45C38.3131 198.597 38.0931 198.823 37.9264 199.13C37.7597 199.437 37.6764 199.81 37.6764 200.25C37.6764 200.697 37.7564 201.073 37.9164 201.38C38.0831 201.687 38.3031 201.917 38.5764 202.07C38.8497 202.217 39.1497 202.29 39.4764 202.29ZM50.7829 197.52L49.0729 203H48.1329L46.8129 198.65L45.4929 203H44.5529L42.8329 197.52H43.7629L45.0229 202.12L46.3829 197.52H47.3129L48.6429 202.13L49.8829 197.52H50.7829Z" fill="#221C1D"/>
<path d="M27.624 223.66C28.512 223.66 29.288 223.832 29.952 224.176C30.624 224.512 31.14 225 31.5 225.64C31.868 226.272 32.052 227.012 32.052 227.86C32.052 228.708 31.868 229.444 31.5 230.068C31.14 230.692 30.624 231.172 29.952 231.508C29.288 231.836 28.512 232 27.624 232H24.9V223.66H27.624ZM27.624 230.884C28.6 230.884 29.348 230.62 29.868 230.092C30.388 229.564 30.648 228.82 30.648 227.86C30.648 226.892 30.388 226.136 29.868 225.592C29.348 225.048 28.6 224.776 27.624 224.776H26.268V230.884H27.624ZM39.4678 228.532C39.4678 228.78 39.4518 229.004 39.4198 229.204H34.3678C34.4078 229.732 34.6038 230.156 34.9558 230.476C35.3078 230.796 35.7398 230.956 36.2518 230.956C36.9878 230.956 37.5078 230.648 37.8118 230.032H39.2878C39.0878 230.64 38.7238 231.14 38.1958 231.532C37.6758 231.916 37.0278 232.108 36.2518 232.108C35.6198 232.108 35.0518 231.968 34.5478 231.688C34.0518 231.4 33.6598 231 33.3718 230.488C33.0918 229.968 32.9518 229.368 32.9518 228.688C32.9518 228.008 33.0878 227.412 33.3598 226.9C33.6398 226.38 34.0278 225.98 34.5238 225.7C35.0278 225.42 35.6038 225.28 36.2518 225.28C36.8758 225.28 37.4318 225.416 37.9198 225.688C38.4078 225.96 38.7878 226.344 39.0598 226.84C39.3318 227.328 39.4678 227.892 39.4678 228.532ZM38.0398 228.1C38.0318 227.596 37.8518 227.192 37.4998 226.888C37.1478 226.584 36.7118 226.432 36.1918 226.432C35.7198 226.432 35.3158 226.584 34.9798 226.888C34.6438 227.184 34.4438 227.588 34.3798 228.1H38.0398ZM43.5861 226.504H42.3621V232H40.9821V226.504H40.2021V225.388H40.9821V224.92C40.9821 224.16 41.1821 223.608 41.5821 223.264C41.9901 222.912 42.6261 222.736 43.4901 222.736V223.876C43.0741 223.876 42.7821 223.956 42.6141 224.116C42.4461 224.268 42.3621 224.536 42.3621 224.92V225.388H43.5861V226.504ZM45.4944 224.512C45.2464 224.512 45.0384 224.428 44.8704 224.26C44.7024 224.092 44.6184 223.884 44.6184 223.636C44.6184 223.388 44.7024 223.18 44.8704 223.012C45.0384 222.844 45.2464 222.76 45.4944 222.76C45.7344 222.76 45.9384 222.844 46.1064 223.012C46.2744 223.18 46.3584 223.388 46.3584 223.636C46.3584 223.884 46.2744 224.092 46.1064 224.26C45.9384 224.428 45.7344 224.512 45.4944 224.512ZM46.1664 225.388V232H44.7984V225.388H46.1664ZM51.2985 225.28C51.8185 225.28 52.2825 225.388 52.6905 225.604C53.1065 225.82 53.4305 226.14 53.6625 226.564C53.8945 226.988 54.0105 227.5 54.0105 228.1V232H52.6545V228.304C52.6545 227.712 52.5065 227.26 52.2105 226.948C51.9145 226.628 51.5105 226.468 50.9985 226.468C50.4865 226.468 50.0785 226.628 49.7745 226.948C49.4785 227.26 49.3305 227.712 49.3305 228.304V232H47.9625V225.388H49.3305V226.144C49.5545 225.872 49.8385 225.66 50.1825 225.508C50.5345 225.356 50.9065 225.28 51.2985 225.28ZM61.8155 228.532C61.8155 228.78 61.7995 229.004 61.7675 229.204H56.7155C56.7555 229.732 56.9515 230.156 57.3035 230.476C57.6555 230.796 58.0875 230.956 58.5995 230.956C59.3355 230.956 59.8555 230.648 60.1595 230.032H61.6355C61.4355 230.64 61.0715 231.14 60.5435 231.532C60.0235 231.916 59.3755 232.108 58.5995 232.108C57.9675 232.108 57.3995 231.968 56.8955 231.688C56.3995 231.4 56.0075 231 55.7195 230.488C55.4395 229.968 55.2995 229.368 55.2995 228.688C55.2995 228.008 55.4355 227.412 55.7075 226.9C55.9875 226.38 56.3755 225.98 56.8715 225.7C57.3755 225.42 57.9515 225.28 58.5995 225.28C59.2235 225.28 59.7795 225.416 60.2675 225.688C60.7555 225.96 61.1355 226.344 61.4075 226.84C61.6795 227.328 61.8155 227.892 61.8155 228.532ZM60.3875 228.1C60.3795 227.596 60.1995 227.192 59.8475 226.888C59.4955 226.584 59.0595 226.432 58.5395 226.432C58.0675 226.432 57.6635 226.584 57.3275 226.888C56.9915 227.184 56.7915 227.588 56.7275 228.1H60.3875ZM74.2829 225.28C74.8029 225.28 75.2669 225.388 75.6749 225.604C76.0909 225.82 76.4149 226.14 76.6469 226.564C76.8869 226.988 77.0069 227.5 77.0069 228.1V232H75.6509V228.304C75.6509 227.712 75.5029 227.26 75.2069 226.948C74.9109 226.628 74.5069 226.468 73.9949 226.468C73.4829 226.468 73.0749 226.628 72.7709 226.948C72.4749 227.26 72.3269 227.712 72.3269 228.304V232H70.9709V228.304C70.9709 227.712 70.8229 227.26 70.5269 226.948C70.2309 226.628 69.8269 226.468 69.3149 226.468C68.8029 226.468 68.3949 226.628 68.0909 226.948C67.7949 227.26 67.6469 227.712 67.6469 228.304V232H66.2789V225.388H67.6469V226.144C67.8709 225.872 68.1549 225.66 68.4989 225.508C68.8429 225.356 69.2109 225.28 69.6029 225.28C70.1309 225.28 70.6029 225.392 71.0189 225.616C71.4349 225.84 71.7549 226.164 71.9789 226.588C72.1789 226.188 72.4909 225.872 72.9149 225.64C73.3389 225.4 73.7949 225.28 74.2829 225.28ZM81.6157 232.108C80.9917 232.108 80.4277 231.968 79.9237 231.688C79.4197 231.4 79.0237 231 78.7357 230.488C78.4477 229.968 78.3037 229.368 78.3037 228.688C78.3037 228.016 78.4517 227.42 78.7477 226.9C79.0437 226.38 79.4477 225.98 79.9597 225.7C80.4717 225.42 81.0437 225.28 81.6757 225.28C82.3077 225.28 82.8797 225.42 83.3917 225.7C83.9037 225.98 84.3077 226.38 84.6037 226.9C84.8997 227.42 85.0477 228.016 85.0477 228.688C85.0477 229.36 84.8957 229.956 84.5917 230.476C84.2877 230.996 83.8717 231.4 83.3437 231.688C82.8237 231.968 82.2477 232.108 81.6157 232.108ZM81.6157 230.92C81.9677 230.92 82.2957 230.836 82.5997 230.668C82.9117 230.5 83.1637 230.248 83.3557 229.912C83.5477 229.576 83.6437 229.168 83.6437 228.688C83.6437 228.208 83.5517 227.804 83.3677 227.476C83.1837 227.14 82.9397 226.888 82.6357 226.72C82.3317 226.552 82.0037 226.468 81.6517 226.468C81.2997 226.468 80.9717 226.552 80.6677 226.72C80.3717 226.888 80.1357 227.14 79.9597 227.476C79.7837 227.804 79.6957 228.208 79.6957 228.688C79.6957 229.4 79.8757 229.952 80.2357 230.344C80.6037 230.728 81.0637 230.92 81.6157 230.92ZM87.768 226.348C87.968 226.012 88.232 225.752 88.56 225.568C88.896 225.376 89.292 225.28 89.748 225.28V226.696H89.4C88.864 226.696 88.456 226.832 88.176 227.104C87.904 227.376 87.768 227.848 87.768 228.52V232H86.4V225.388H87.768V226.348ZM97.0655 228.532C97.0655 228.78 97.0495 229.004 97.0175 229.204H91.9655C92.0055 229.732 92.2015 230.156 92.5535 230.476C92.9055 230.796 93.3375 230.956 93.8495 230.956C94.5855 230.956 95.1055 230.648 95.4095 230.032H96.8855C96.6855 230.64 96.3215 231.14 95.7935 231.532C95.2735 231.916 94.6255 232.108 93.8495 232.108C93.2175 232.108 92.6495 231.968 92.1455 231.688C91.6495 231.4 91.2575 231 90.9695 230.488C90.6895 229.968 90.5495 229.368 90.5495 228.688C90.5495 228.008 90.6855 227.412 90.9575 226.9C91.2375 226.38 91.6255 225.98 92.1215 225.7C92.6255 225.42 93.2015 225.28 93.8495 225.28C94.4735 225.28 95.0295 225.416 95.5175 225.688C96.0055 225.96 96.3855 226.344 96.6575 226.84C96.9295 227.328 97.0655 227.892 97.0655 228.532ZM95.6375 228.1C95.6295 227.596 95.4495 227.192 95.0975 226.888C94.7455 226.584 94.3095 226.432 93.7895 226.432C93.3175 226.432 92.9135 226.584 92.5775 226.888C92.2415 227.184 92.0415 227.588 91.9775 228.1H95.6375ZM103.125 226.504V230.164C103.125 230.412 103.181 230.592 103.293 230.704C103.413 230.808 103.613 230.86 103.893 230.86H104.733V232H103.653C103.037 232 102.565 231.856 102.237 231.568C101.909 231.28 101.745 230.812 101.745 230.164V226.504H100.965V225.388H101.745V223.744H103.125V225.388H104.733V226.504H103.125ZM105.538 228.664C105.538 228 105.674 227.412 105.946 226.9C106.226 226.388 106.602 225.992 107.074 225.712C107.554 225.424 108.082 225.28 108.658 225.28C109.178 225.28 109.63 225.384 110.014 225.592C110.406 225.792 110.718 226.044 110.95 226.348V225.388H112.33V232H110.95V231.016C110.718 231.328 110.402 231.588 110.002 231.796C109.602 232.004 109.146 232.108 108.634 232.108C108.066 232.108 107.546 231.964 107.074 231.676C106.602 231.38 106.226 230.972 105.946 230.452C105.674 229.924 105.538 229.328 105.538 228.664ZM110.95 228.688C110.95 228.232 110.854 227.836 110.662 227.5C110.478 227.164 110.234 226.908 109.93 226.732C109.626 226.556 109.298 226.468 108.946 226.468C108.594 226.468 108.266 226.556 107.962 226.732C107.658 226.9 107.41 227.152 107.218 227.488C107.034 227.816 106.942 228.208 106.942 228.664C106.942 229.12 107.034 229.52 107.218 229.864C107.41 230.208 107.658 230.472 107.962 230.656C108.274 230.832 108.602 230.92 108.946 230.92C109.298 230.92 109.626 230.832 109.93 230.656C110.234 230.48 110.478 230.224 110.662 229.888C110.854 229.544 110.95 229.144 110.95 228.688ZM116.791 225.28C117.303 225.28 117.755 225.384 118.147 225.592C118.547 225.792 118.859 226.044 119.083 226.348V225.388H120.463V232.108C120.463 232.716 120.335 233.256 120.079 233.728C119.823 234.208 119.451 234.584 118.963 234.856C118.483 235.128 117.907 235.264 117.235 235.264C116.339 235.264 115.595 235.052 115.003 234.628C114.411 234.212 114.075 233.644 113.995 232.924H115.351C115.455 233.268 115.675 233.544 116.011 233.752C116.355 233.968 116.763 234.076 117.235 234.076C117.787 234.076 118.231 233.908 118.567 233.572C118.911 233.236 119.083 232.748 119.083 232.108V231.004C118.851 231.316 118.535 231.58 118.135 231.796C117.743 232.004 117.295 232.108 116.791 232.108C116.215 232.108 115.687 231.964 115.207 231.676C114.735 231.38 114.359 230.972 114.079 230.452C113.807 229.924 113.671 229.328 113.671 228.664C113.671 228 113.807 227.412 114.079 226.9C114.359 226.388 114.735 225.992 115.207 225.712C115.687 225.424 116.215 225.28 116.791 225.28ZM119.083 228.688C119.083 228.232 118.987 227.836 118.795 227.5C118.611 227.164 118.367 226.908 118.063 226.732C117.759 226.556 117.431 226.468 117.079 226.468C116.727 226.468 116.399 226.556 116.095 226.732C115.791 226.9 115.543 227.152 115.351 227.488C115.167 227.816 115.075 228.208 115.075 228.664C115.075 229.12 115.167 229.52 115.351 229.864C115.543 230.208 115.791 230.472 116.095 230.656C116.407 230.832 116.735 230.92 117.079 230.92C117.431 230.92 117.759 230.832 118.063 230.656C118.367 230.48 118.611 230.224 118.795 229.888C118.987 229.544 119.083 229.144 119.083 228.688ZM124.659 232.108C124.139 232.108 123.671 232.016 123.255 231.832C122.847 231.64 122.523 231.384 122.283 231.064C122.043 230.736 121.915 230.372 121.899 229.972H123.315C123.339 230.252 123.471 230.488 123.711 230.68C123.959 230.864 124.267 230.956 124.635 230.956C125.019 230.956 125.315 230.884 125.523 230.74C125.739 230.588 125.847 230.396 125.847 230.164C125.847 229.916 125.727 229.732 125.487 229.612C125.255 229.492 124.883 229.36 124.371 229.216C123.875 229.08 123.471 228.948 123.159 228.82C122.847 228.692 122.575 228.496 122.343 228.232C122.119 227.968 122.007 227.62 122.007 227.188C122.007 226.836 122.111 226.516 122.319 226.228C122.527 225.932 122.823 225.7 123.207 225.532C123.599 225.364 124.047 225.28 124.551 225.28C125.303 225.28 125.907 225.472 126.363 225.856C126.827 226.232 127.075 226.748 127.107 227.404H125.739C125.715 227.108 125.595 226.872 125.379 226.696C125.163 226.52 124.871 226.432 124.503 226.432C124.143 226.432 123.867 226.5 123.675 226.636C123.483 226.772 123.387 226.952 123.387 227.176C123.387 227.352 123.451 227.5 123.579 227.62C123.707 227.74 123.863 227.836 124.047 227.908C124.231 227.972 124.503 228.056 124.863 228.16C125.343 228.288 125.735 228.42 126.039 228.556C126.351 228.684 126.619 228.876 126.843 229.132C127.067 229.388 127.183 229.728 127.191 230.152C127.191 230.528 127.087 230.864 126.879 231.16C126.671 231.456 126.375 231.688 125.991 231.856C125.615 232.024 125.171 232.108 124.659 232.108ZM132.483 224.512C132.235 224.512 132.027 224.428 131.859 224.26C131.691 224.092 131.607 223.884 131.607 223.636C131.607 223.388 131.691 223.18 131.859 223.012C132.027 222.844 132.235 222.76 132.483 222.76C132.723 222.76 132.927 222.844 133.095 223.012C133.263 223.18 133.347 223.388 133.347 223.636C133.347 223.884 133.263 224.092 133.095 224.26C132.927 224.428 132.723 224.512 132.483 224.512ZM133.155 225.388V232H131.787V225.388H133.155ZM138.287 225.28C138.807 225.28 139.271 225.388 139.679 225.604C140.095 225.82 140.419 226.14 140.651 226.564C140.883 226.988 140.999 227.5 140.999 228.1V232H139.643V228.304C139.643 227.712 139.495 227.26 139.199 226.948C138.903 226.628 138.499 226.468 137.987 226.468C137.475 226.468 137.067 226.628 136.763 226.948C136.467 227.26 136.319 227.712 136.319 228.304V232H134.951V225.388H136.319V226.144C136.543 225.872 136.827 225.66 137.171 225.508C137.523 225.356 137.895 225.28 138.287 225.28ZM145.405 228.688C145.405 228.008 145.541 227.412 145.813 226.9C146.093 226.38 146.477 225.98 146.965 225.7C147.453 225.42 148.013 225.28 148.645 225.28C149.445 225.28 150.105 225.472 150.625 225.856C151.153 226.232 151.509 226.772 151.693 227.476H150.217C150.097 227.148 149.905 226.892 149.641 226.708C149.377 226.524 149.045 226.432 148.645 226.432C148.085 226.432 147.637 226.632 147.301 227.032C146.973 227.424 146.809 227.976 146.809 228.688C146.809 229.4 146.973 229.956 147.301 230.356C147.637 230.756 148.085 230.956 148.645 230.956C149.437 230.956 149.961 230.608 150.217 229.912H151.693C151.501 230.584 151.141 231.12 150.613 231.52C150.085 231.912 149.429 232.108 148.645 232.108C148.013 232.108 147.453 231.968 146.965 231.688C146.477 231.4 146.093 231 145.813 230.488C145.541 229.968 145.405 229.368 145.405 228.688ZM155.924 232.108C155.3 232.108 154.736 231.968 154.232 231.688C153.728 231.4 153.332 231 153.044 230.488C152.756 229.968 152.612 229.368 152.612 228.688C152.612 228.016 152.76 227.42 153.056 226.9C153.352 226.38 153.756 225.98 154.268 225.7C154.78 225.42 155.352 225.28 155.984 225.28C156.616 225.28 157.188 225.42 157.7 225.7C158.212 225.98 158.616 226.38 158.912 226.9C159.208 227.42 159.356 228.016 159.356 228.688C159.356 229.36 159.204 229.956 158.9 230.476C158.596 230.996 158.18 231.4 157.652 231.688C157.132 231.968 156.556 232.108 155.924 232.108ZM155.924 230.92C156.276 230.92 156.604 230.836 156.908 230.668C157.22 230.5 157.472 230.248 157.664 229.912C157.856 229.576 157.952 229.168 157.952 228.688C157.952 228.208 157.86 227.804 157.676 227.476C157.492 227.14 157.248 226.888 156.944 226.72C156.64 226.552 156.312 226.468 155.96 226.468C155.608 226.468 155.28 226.552 154.976 226.72C154.68 226.888 154.444 227.14 154.268 227.476C154.092 227.804 154.004 228.208 154.004 228.688C154.004 229.4 154.184 229.952 154.544 230.344C154.912 230.728 155.372 230.92 155.924 230.92ZM168.713 225.28C169.233 225.28 169.697 225.388 170.105 225.604C170.521 225.82 170.845 226.14 171.077 226.564C171.317 226.988 171.437 227.5 171.437 228.1V232H170.081V228.304C170.081 227.712 169.933 227.26 169.637 226.948C169.341 226.628 168.937 226.468 168.425 226.468C167.913 226.468 167.505 226.628 167.201 226.948C166.905 227.26 166.757 227.712 166.757 228.304V232H165.401V228.304C165.401 227.712 165.253 227.26 164.957 226.948C164.661 226.628 164.257 226.468 163.745 226.468C163.233 226.468 162.825 226.628 162.521 226.948C162.225 227.26 162.077 227.712 162.077 228.304V232H160.709V225.388H162.077V226.144C162.301 225.872 162.585 225.66 162.929 225.508C163.273 225.356 163.641 225.28 164.033 225.28C164.561 225.28 165.033 225.392 165.449 225.616C165.865 225.84 166.185 226.164 166.409 226.588C166.609 226.188 166.921 225.872 167.345 225.64C167.769 225.4 168.225 225.28 168.713 225.28ZM174.545 226.36C174.777 226.056 175.093 225.8 175.493 225.592C175.893 225.384 176.345 225.28 176.849 225.28C177.425 225.28 177.949 225.424 178.421 225.712C178.901 225.992 179.277 226.388 179.549 226.9C179.821 227.412 179.957 228 179.957 228.664C179.957 229.328 179.821 229.924 179.549 230.452C179.277 230.972 178.901 231.38 178.421 231.676C177.949 231.964 177.425 232.108 176.849 232.108C176.345 232.108 175.897 232.008 175.505 231.808C175.113 231.6 174.793 231.344 174.545 231.04V235.144H173.177V225.388H174.545V226.36ZM178.565 228.664C178.565 228.208 178.469 227.816 178.277 227.488C178.093 227.152 177.845 226.9 177.533 226.732C177.229 226.556 176.901 226.468 176.549 226.468C176.205 226.468 175.877 226.556 175.565 226.732C175.261 226.908 175.013 227.164 174.821 227.5C174.637 227.836 174.545 228.232 174.545 228.688C174.545 229.144 174.637 229.544 174.821 229.888C175.013 230.224 175.261 230.48 175.565 230.656C175.877 230.832 176.205 230.92 176.549 230.92C176.901 230.92 177.229 230.832 177.533 230.656C177.845 230.472 178.093 230.208 178.277 229.864C178.469 229.52 178.565 229.12 178.565 228.664ZM184.178 232.108C183.554 232.108 182.99 231.968 182.486 231.688C181.982 231.4 181.586 231 181.298 230.488C181.01 229.968 180.866 229.368 180.866 228.688C180.866 228.016 181.014 227.42 181.31 226.9C181.606 226.38 182.01 225.98 182.522 225.7C183.034 225.42 183.606 225.28 184.238 225.28C184.87 225.28 185.442 225.42 185.954 225.7C186.466 225.98 186.87 226.38 187.166 226.9C187.462 227.42 187.61 228.016 187.61 228.688C187.61 229.36 187.458 229.956 187.154 230.476C186.85 230.996 186.434 231.4 185.906 231.688C185.386 231.968 184.81 232.108 184.178 232.108ZM184.178 230.92C184.53 230.92 184.858 230.836 185.162 230.668C185.474 230.5 185.726 230.248 185.918 229.912C186.11 229.576 186.206 229.168 186.206 228.688C186.206 228.208 186.114 227.804 185.93 227.476C185.746 227.14 185.502 226.888 185.198 226.72C184.894 226.552 184.566 226.468 184.214 226.468C183.862 226.468 183.534 226.552 183.23 226.72C182.934 226.888 182.698 227.14 182.522 227.476C182.346 227.804 182.258 228.208 182.258 228.688C182.258 229.4 182.438 229.952 182.798 230.344C183.166 230.728 183.626 230.92 184.178 230.92ZM192.299 225.28C192.819 225.28 193.283 225.388 193.691 225.604C194.107 225.82 194.431 226.14 194.663 226.564C194.895 226.988 195.011 227.5 195.011 228.1V232H193.655V228.304C193.655 227.712 193.507 227.26 193.211 226.948C192.915 226.628 192.511 226.468 191.999 226.468C191.487 226.468 191.079 226.628 190.775 226.948C190.479 227.26 190.331 227.712 190.331 228.304V232H188.963V225.388H190.331V226.144C190.555 225.872 190.839 225.66 191.183 225.508C191.535 225.356 191.907 225.28 192.299 225.28ZM202.815 228.532C202.815 228.78 202.799 229.004 202.767 229.204H197.715C197.755 229.732 197.951 230.156 198.303 230.476C198.655 230.796 199.087 230.956 199.599 230.956C200.335 230.956 200.855 230.648 201.159 230.032H202.635C202.435 230.64 202.071 231.14 201.543 231.532C201.023 231.916 200.375 232.108 199.599 232.108C198.967 232.108 198.399 231.968 197.895 231.688C197.399 231.4 197.007 231 196.719 230.488C196.439 229.968 196.299 229.368 196.299 228.688C196.299 228.008 196.435 227.412 196.707 226.9C196.987 226.38 197.375 225.98 197.871 225.7C198.375 225.42 198.951 225.28 199.599 225.28C200.223 225.28 200.779 225.416 201.267 225.688C201.755 225.96 202.135 226.344 202.407 226.84C202.679 227.328 202.815 227.892 202.815 228.532ZM201.387 228.1C201.379 227.596 201.199 227.192 200.847 226.888C200.495 226.584 200.059 226.432 199.539 226.432C199.067 226.432 198.663 226.584 198.327 226.888C197.991 227.184 197.791 227.588 197.727 228.1H201.387ZM207.498 225.28C208.018 225.28 208.482 225.388 208.89 225.604C209.306 225.82 209.63 226.14 209.862 226.564C210.094 226.988 210.21 227.5 210.21 228.1V232H208.854V228.304C208.854 227.712 208.706 227.26 208.41 226.948C208.114 226.628 207.71 226.468 207.198 226.468C206.686 226.468 206.278 226.628 205.974 226.948C205.678 227.26 205.53 227.712 205.53 228.304V232H204.162V225.388H205.53V226.144C205.754 225.872 206.038 225.66 206.382 225.508C206.734 225.356 207.106 225.28 207.498 225.28ZM213.551 226.504V230.164C213.551 230.412 213.607 230.592 213.719 230.704C213.839 230.808 214.039 230.86 214.319 230.86H215.159V232H214.079C213.463 232 212.991 231.856 212.663 231.568C212.335 231.28 212.171 230.812 212.171 230.164V226.504H211.391V225.388H212.171V223.744H213.551V225.388H215.159V226.504H213.551ZM218.82 232.108C218.3 232.108 217.832 232.016 217.416 231.832C217.008 231.64 216.684 231.384 216.444 231.064C216.204 230.736 216.076 230.372 216.06 229.972H217.476C217.5 230.252 217.632 230.488 217.872 230.68C218.12 230.864 218.428 230.956 218.796 230.956C219.18 230.956 219.476 230.884 219.684 230.74C219.9 230.588 220.008 230.396 220.008 230.164C220.008 229.916 219.888 229.732 219.648 229.612C219.416 229.492 219.044 229.36 218.532 229.216C218.036 229.08 217.632 228.948 217.32 228.82C217.008 228.692 216.736 228.496 216.504 228.232C216.28 227.968 216.168 227.62 216.168 227.188C216.168 226.836 216.272 226.516 216.48 226.228C216.688 225.932 216.984 225.7 217.368 225.532C217.76 225.364 218.208 225.28 218.712 225.28C219.464 225.28 220.068 225.472 220.524 225.856C220.988 226.232 221.236 226.748 221.268 227.404H219.9C219.876 227.108 219.756 226.872 219.54 226.696C219.324 226.52 219.032 226.432 218.664 226.432C218.304 226.432 218.028 226.5 217.836 226.636C217.644 226.772 217.548 226.952 217.548 227.176C217.548 227.352 217.612 227.5 217.74 227.62C217.868 227.74 218.024 227.836 218.208 227.908C218.392 227.972 218.664 228.056 219.024 228.16C219.504 228.288 219.896 228.42 220.2 228.556C220.512 228.684 220.78 228.876 221.004 229.132C221.228 229.388 221.344 229.728 221.352 230.152C221.352 230.528 221.248 230.864 221.04 231.16C220.832 231.456 220.536 231.688 220.152 231.856C219.776 232.024 219.332 232.108 218.82 232.108Z" fill="#221C1D"/>
<path d="M32.624 249.388V257H31.623V251.324L29.093 257H28.389L25.848 251.313V257H24.847V249.388H25.925L28.741 255.68L31.557 249.388H32.624ZM33.9476 253.964C33.9476 253.348 34.0723 252.809 34.3216 252.347C34.5709 251.878 34.9119 251.515 35.3446 251.258C35.7846 251.001 36.2723 250.873 36.8076 250.873C37.3356 250.873 37.7939 250.987 38.1826 251.214C38.5713 251.441 38.8609 251.727 39.0516 252.072V250.972H40.0636V257H39.0516V255.878C38.8536 256.23 38.5566 256.523 38.1606 256.758C37.7719 256.985 37.3173 257.099 36.7966 257.099C36.2613 257.099 35.7773 256.967 35.3446 256.703C34.9119 256.439 34.5709 256.069 34.3216 255.592C34.0723 255.115 33.9476 254.573 33.9476 253.964ZM39.0516 253.975C39.0516 253.52 38.9599 253.124 38.7766 252.787C38.5933 252.45 38.3439 252.193 38.0286 252.017C37.7206 251.834 37.3796 251.742 37.0056 251.742C36.6316 251.742 36.2906 251.83 35.9826 252.006C35.6746 252.182 35.4289 252.439 35.2456 252.776C35.0623 253.113 34.9706 253.509 34.9706 253.964C34.9706 254.426 35.0623 254.829 35.2456 255.174C35.4289 255.511 35.6746 255.772 35.9826 255.955C36.2906 256.131 36.6316 256.219 37.0056 256.219C37.3796 256.219 37.7206 256.131 38.0286 255.955C38.3439 255.772 38.5933 255.511 38.7766 255.174C38.9599 254.829 39.0516 254.43 39.0516 253.975ZM42.7562 251.951C42.9322 251.606 43.1815 251.339 43.5042 251.148C43.8342 250.957 44.2339 250.862 44.7032 250.862V251.896H44.4392C43.3172 251.896 42.7562 252.505 42.7562 253.722V257H41.7552V250.972H42.7562V251.951ZM48.3843 255.229V254.47L52.2453 249.124H53.4443V254.36H54.5443V255.229H53.4443V257H52.4543V255.229H48.3843ZM52.4983 250.169L49.5393 254.36H52.4983V250.169ZM56.7433 255.614L55.5113 258.573H54.8403L55.6433 255.614H56.7433ZM60.5366 256.197C61.4679 255.449 62.1976 254.837 62.7256 254.36C63.2536 253.876 63.6973 253.374 64.0566 252.853C64.4233 252.325 64.6066 251.808 64.6066 251.302C64.6066 250.825 64.4893 250.451 64.2546 250.18C64.0273 249.901 63.6569 249.762 63.1436 249.762C62.6449 249.762 62.2563 249.92 61.9776 250.235C61.7063 250.543 61.5596 250.957 61.5376 251.478H60.5696C60.5989 250.657 60.8483 250.022 61.3176 249.575C61.7869 249.128 62.3919 248.904 63.1326 248.904C63.8879 248.904 64.4856 249.113 64.9256 249.531C65.3729 249.949 65.5966 250.525 65.5966 251.258C65.5966 251.867 65.4133 252.461 65.0466 253.04C64.6873 253.612 64.2766 254.118 63.8146 254.558C63.3526 254.991 62.7623 255.497 62.0436 256.076H65.8276V256.912H60.5366V256.197ZM66.9847 252.941C66.9847 251.68 67.1901 250.697 67.6007 249.993C68.0114 249.282 68.7301 248.926 69.7567 248.926C70.7761 248.926 71.4911 249.282 71.9017 249.993C72.3124 250.697 72.5177 251.68 72.5177 252.941C72.5177 254.224 72.3124 255.222 71.9017 255.933C71.4911 256.644 70.7761 257 69.7567 257C68.7301 257 68.0114 256.644 67.6007 255.933C67.1901 255.222 66.9847 254.224 66.9847 252.941ZM71.5277 252.941C71.5277 252.303 71.4837 251.764 71.3957 251.324C71.3151 250.877 71.1427 250.517 70.8787 250.246C70.6221 249.975 70.2481 249.839 69.7567 249.839C69.2581 249.839 68.8767 249.975 68.6127 250.246C68.3561 250.517 68.1837 250.877 68.0957 251.324C68.0151 251.764 67.9747 252.303 67.9747 252.941C67.9747 253.601 68.0151 254.155 68.0957 254.602C68.1837 255.049 68.3561 255.409 68.6127 255.68C68.8767 255.951 69.2581 256.087 69.7567 256.087C70.2481 256.087 70.6221 255.951 70.8787 255.68C71.1427 255.409 71.3151 255.049 71.3957 254.602C71.4837 254.155 71.5277 253.601 71.5277 252.941ZM73.771 256.197C74.7023 255.449 75.432 254.837 75.96 254.36C76.488 253.876 76.9316 253.374 77.291 252.853C77.6576 252.325 77.841 251.808 77.841 251.302C77.841 250.825 77.7236 250.451 77.489 250.18C77.2616 249.901 76.8913 249.762 76.378 249.762C75.8793 249.762 75.4906 249.92 75.212 250.235C74.9406 250.543 74.794 250.957 74.772 251.478H73.804C73.8333 250.657 74.0826 250.022 74.552 249.575C75.0213 249.128 75.6263 248.904 76.367 248.904C77.1223 248.904 77.72 249.113 78.16 249.531C78.6073 249.949 78.831 250.525 78.831 251.258C78.831 251.867 78.6476 252.461 78.281 253.04C77.9216 253.612 77.511 254.118 77.049 254.558C76.587 254.991 75.9966 255.497 75.278 256.076H79.062V256.912H73.771V256.197ZM85.2901 249.916H81.4291V252.424C81.5978 252.189 81.8471 251.999 82.1771 251.852C82.5071 251.698 82.8628 251.621 83.2441 251.621C83.8528 251.621 84.3478 251.749 84.7291 252.006C85.1104 252.255 85.3818 252.582 85.5431 252.985C85.7118 253.381 85.7961 253.803 85.7961 254.25C85.7961 254.778 85.6971 255.251 85.4991 255.669C85.3011 256.087 84.9968 256.417 84.5861 256.659C84.1828 256.901 83.6804 257.022 83.0791 257.022C82.3091 257.022 81.6858 256.824 81.2091 256.428C80.7324 256.032 80.4428 255.504 80.3401 254.844H81.3191C81.4144 255.262 81.6161 255.588 81.9241 255.823C82.2321 256.058 82.6208 256.175 83.0901 256.175C83.6694 256.175 84.1058 256.003 84.3991 255.658C84.6924 255.306 84.8391 254.844 84.8391 254.272C84.8391 253.7 84.6924 253.26 84.3991 252.952C84.1058 252.637 83.6731 252.479 83.1011 252.479C82.7124 252.479 82.3714 252.574 82.0781 252.765C81.7921 252.948 81.5831 253.201 81.4511 253.524H80.5051V249.036H85.2901V249.916Z" fill="#666666"/>
</svg>
