<svg width="298" height="180" viewBox="0 0 298 180" fill="none" xmlns="http://www.w3.org/2000/svg">
<rect x="0.5" y="0.5" width="297" height="179" rx="3.5" fill="#F9F9F9"/>
<rect x="0.5" y="0.5" width="297" height="179" rx="3.5" stroke="#E5E5E5"/>
<path d="M16.592 28.416C16.592 27.328 16.8427 26.352 17.344 25.488C17.856 24.624 18.544 23.952 19.408 23.472C20.2827 22.9813 21.2373 22.736 22.272 22.736C23.456 22.736 24.5067 23.0293 25.424 23.616C26.352 24.192 27.024 25.0133 27.44 26.08H25.248C24.96 25.4933 24.56 25.056 24.048 24.768C23.536 24.48 22.944 24.336 22.272 24.336C21.536 24.336 20.88 24.5013 20.304 24.832C19.728 25.1627 19.2747 25.6373 18.944 26.256C18.624 26.8747 18.464 27.5947 18.464 28.416C18.464 29.2373 18.624 29.9573 18.944 30.576C19.2747 31.1947 19.728 31.6747 20.304 32.016C20.88 32.3467 21.536 32.512 22.272 32.512C22.944 32.512 23.536 32.368 24.048 32.08C24.56 31.792 24.96 31.3547 25.248 30.768H27.44C27.024 31.8347 26.352 32.656 25.424 33.232C24.5067 33.808 23.456 34.096 22.272 34.096C21.2267 34.096 20.272 33.856 19.408 33.376C18.544 32.8853 17.856 32.208 17.344 31.344C16.8427 30.48 16.592 29.504 16.592 28.416ZM33.399 34.144C32.567 34.144 31.815 33.9573 31.143 33.584C30.471 33.2 29.943 32.6667 29.559 31.984C29.175 31.2907 28.983 30.4907 28.983 29.584C28.983 28.688 29.1803 27.8933 29.575 27.2C29.9697 26.5067 30.5083 25.9733 31.191 25.6C31.8737 25.2267 32.6363 25.04 33.479 25.04C34.3217 25.04 35.0843 25.2267 35.767 25.6C36.4497 25.9733 36.9883 26.5067 37.383 27.2C37.7777 27.8933 37.975 28.688 37.975 29.584C37.975 30.48 37.7723 31.2747 37.367 31.968C36.9617 32.6613 36.407 33.2 35.703 33.584C35.0097 33.9573 34.2417 34.144 33.399 34.144ZM33.399 32.56C33.8683 32.56 34.3057 32.448 34.711 32.224C35.127 32 35.463 31.664 35.719 31.216C35.975 30.768 36.103 30.224 36.103 29.584C36.103 28.944 35.9803 28.4053 35.735 27.968C35.4897 27.52 35.1643 27.184 34.759 26.96C34.3537 26.736 33.9163 26.624 33.447 26.624C32.9777 26.624 32.5403 26.736 32.135 26.96C31.7403 27.184 31.4257 27.52 31.191 27.968C30.9563 28.4053 30.839 28.944 30.839 29.584C30.839 30.5333 31.079 31.2693 31.559 31.792C32.0497 32.304 32.663 32.56 33.399 32.56ZM50.4501 25.04C51.1435 25.04 51.7621 25.184 52.3061 25.472C52.8608 25.76 53.2928 26.1867 53.6021 26.752C53.9221 27.3173 54.0821 28 54.0821 28.8V34H52.2741V29.072C52.2741 28.2827 52.0768 27.68 51.6821 27.264C51.2875 26.8373 50.7488 26.624 50.0661 26.624C49.3835 26.624 48.8395 26.8373 48.4341 27.264C48.0395 27.68 47.8421 28.2827 47.8421 29.072V34H46.0341V29.072C46.0341 28.2827 45.8368 27.68 45.4421 27.264C45.0475 26.8373 44.5088 26.624 43.8261 26.624C43.1435 26.624 42.5995 26.8373 42.1941 27.264C41.7995 27.68 41.6021 28.2827 41.6021 29.072V34H39.7781V25.184H41.6021V26.192C41.9008 25.8293 42.2795 25.5467 42.7381 25.344C43.1968 25.1413 43.6875 25.04 44.2101 25.04C44.9141 25.04 45.5435 25.1893 46.0981 25.488C46.6528 25.7867 47.0795 26.2187 47.3781 26.784C47.6448 26.2507 48.0608 25.8293 48.6261 25.52C49.1915 25.2 49.7995 25.04 50.4501 25.04ZM58.2271 26.48C58.5365 26.0747 58.9578 25.7333 59.4911 25.456C60.0245 25.1787 60.6271 25.04 61.2991 25.04C62.0671 25.04 62.7658 25.232 63.3951 25.616C64.0351 25.9893 64.5365 26.5173 64.8991 27.2C65.2618 27.8827 65.4431 28.6667 65.4431 29.552C65.4431 30.4373 65.2618 31.232 64.8991 31.936C64.5365 32.6293 64.0351 33.1733 63.3951 33.568C62.7658 33.952 62.0671 34.144 61.2991 34.144C60.6271 34.144 60.0298 34.0107 59.5071 33.744C58.9845 33.4667 58.5578 33.1253 58.2271 32.72V38.192H56.4031V25.184H58.2271V26.48ZM63.5871 29.552C63.5871 28.944 63.4591 28.4213 63.2031 27.984C62.9578 27.536 62.6271 27.2 62.2111 26.976C61.8058 26.7413 61.3685 26.624 60.8991 26.624C60.4405 26.624 60.0031 26.7413 59.5871 26.976C59.1818 27.2107 58.8511 27.552 58.5951 28C58.3498 28.448 58.2271 28.976 58.2271 29.584C58.2271 30.192 58.3498 30.7253 58.5951 31.184C58.8511 31.632 59.1818 31.9733 59.5871 32.208C60.0031 32.4427 60.4405 32.56 60.8991 32.56C61.3685 32.56 61.8058 32.4427 62.2111 32.208C62.6271 31.9627 62.9578 31.6107 63.2031 31.152C63.4591 30.6933 63.5871 30.16 63.5871 29.552ZM69.0709 22.16V34H67.2469V22.16H69.0709ZM79.5456 29.376C79.5456 29.7067 79.5243 30.0053 79.4816 30.272H72.7456C72.799 30.976 73.0603 31.5413 73.5296 31.968C73.999 32.3947 74.575 32.608 75.2576 32.608C76.239 32.608 76.9323 32.1973 77.3376 31.376H79.3056C79.039 32.1867 78.5536 32.8533 77.8496 33.376C77.1563 33.888 76.2923 34.144 75.2576 34.144C74.415 34.144 73.6576 33.9573 72.9856 33.584C72.3243 33.2 71.8016 32.6667 71.4176 31.984C71.0443 31.2907 70.8576 30.4907 70.8576 29.584C70.8576 28.6773 71.039 27.8827 71.4016 27.2C71.775 26.5067 72.2923 25.9733 72.9536 25.6C73.6256 25.2267 74.3936 25.04 75.2576 25.04C76.0896 25.04 76.831 25.2213 77.4816 25.584C78.1323 25.9467 78.639 26.4587 79.0016 27.12C79.3643 27.7707 79.5456 28.5227 79.5456 29.376ZM77.6416 28.8C77.631 28.128 77.391 27.5893 76.9216 27.184C76.4523 26.7787 75.871 26.576 75.1776 26.576C74.5483 26.576 74.0096 26.7787 73.5616 27.184C73.1136 27.5787 72.847 28.1173 72.7616 28.8H77.6416ZM83.4686 26.672V31.552C83.4686 31.8827 83.5433 32.1227 83.6926 32.272C83.8526 32.4107 84.1193 32.48 84.4926 32.48H85.6126V34H84.1726C83.3513 34 82.722 33.808 82.2846 33.424C81.8473 33.04 81.6286 32.416 81.6286 31.552V26.672H80.5886V25.184H81.6286V22.992H83.4686V25.184H85.6126V26.672H83.4686ZM95.3738 29.376C95.3738 29.7067 95.3524 30.0053 95.3098 30.272H88.5738C88.6271 30.976 88.8884 31.5413 89.3578 31.968C89.8271 32.3947 90.4031 32.608 91.0858 32.608C92.0671 32.608 92.7604 32.1973 93.1658 31.376H95.1337C94.8671 32.1867 94.3818 32.8533 93.6778 33.376C92.9844 33.888 92.1204 34.144 91.0858 34.144C90.2431 34.144 89.4858 33.9573 88.8138 33.584C88.1524 33.2 87.6298 32.6667 87.2458 31.984C86.8724 31.2907 86.6858 30.4907 86.6858 29.584C86.6858 28.6773 86.8671 27.8827 87.2298 27.2C87.6031 26.5067 88.1204 25.9733 88.7818 25.6C89.4538 25.2267 90.2218 25.04 91.0858 25.04C91.9178 25.04 92.6591 25.2213 93.3098 25.584C93.9604 25.9467 94.4671 26.4587 94.8298 27.12C95.1924 27.7707 95.3738 28.5227 95.3738 29.376ZM93.4698 28.8C93.4591 28.128 93.2191 27.5893 92.7498 27.184C92.2804 26.7787 91.6991 26.576 91.0058 26.576C90.3764 26.576 89.8378 26.7787 89.3898 27.184C88.9418 27.5787 88.6751 28.1173 88.5898 28.8H93.4698ZM96.5608 29.552C96.5608 28.6667 96.7421 27.8827 97.1048 27.2C97.4781 26.5173 97.9794 25.9893 98.6088 25.616C99.2488 25.232 99.9581 25.04 100.737 25.04C101.313 25.04 101.878 25.168 102.433 25.424C102.998 25.6693 103.446 26 103.777 26.416V22.16H105.617V34H103.777V32.672C103.478 33.0987 103.062 33.4507 102.529 33.728C102.006 34.0053 101.403 34.144 100.721 34.144C99.9528 34.144 99.2488 33.952 98.6088 33.568C97.9794 33.1733 97.4781 32.6293 97.1048 31.936C96.7421 31.232 96.5608 30.4373 96.5608 29.552ZM103.777 29.584C103.777 28.976 103.649 28.448 103.393 28C103.147 27.552 102.822 27.2107 102.417 26.976C102.011 26.7413 101.574 26.624 101.105 26.624C100.635 26.624 100.198 26.7413 99.7928 26.976C99.3874 27.2 99.0568 27.536 98.8008 27.984C98.5554 28.4213 98.4328 28.944 98.4328 29.552C98.4328 30.16 98.5554 30.6933 98.8008 31.152C99.0568 31.6107 99.3874 31.9627 99.7928 32.208C100.209 32.4427 100.646 32.56 101.105 32.56C101.574 32.56 102.011 32.4427 102.417 32.208C102.822 31.9733 103.147 31.632 103.393 31.184C103.649 30.7253 103.777 30.192 103.777 29.584Z" fill="black"/>
<rect x="16.5" y="56.5" width="265" height="107" rx="3.5" fill="white"/>
<rect x="16.5" y="56.5" width="265" height="107" rx="3.5" stroke="#666666"/>
<rect x="24" y="64" width="39" height="23" rx="11.5" fill="#DE1D3E"/>
<path d="M38.14 72.03V79H37.23V75.84H33.68V79H32.77V72.03H33.68V75.09H37.23V72.03H38.14ZM40.1638 72.63C39.9905 72.63 39.8438 72.57 39.7238 72.45C39.6038 72.33 39.5438 72.1833 39.5438 72.01C39.5438 71.8367 39.6038 71.69 39.7238 71.57C39.8438 71.45 39.9905 71.39 40.1638 71.39C40.3305 71.39 40.4705 71.45 40.5838 71.57C40.7038 71.69 40.7638 71.8367 40.7638 72.01C40.7638 72.1833 40.7038 72.33 40.5838 72.45C40.4705 72.57 40.3305 72.63 40.1638 72.63ZM40.6038 73.52V79H39.6938V73.52H40.6038ZM44.4148 73.43C44.8881 73.43 45.3014 73.5333 45.6548 73.74C46.0148 73.9467 46.2814 74.2067 46.4548 74.52V73.52H47.3748V79.12C47.3748 79.62 47.2681 80.0633 47.0548 80.45C46.8414 80.8433 46.5348 81.15 46.1348 81.37C45.7414 81.59 45.2814 81.7 44.7548 81.7C44.0348 81.7 43.4348 81.53 42.9548 81.19C42.4748 80.85 42.1914 80.3867 42.1048 79.8H43.0048C43.1048 80.1333 43.3114 80.4 43.6248 80.6C43.9381 80.8067 44.3148 80.91 44.7548 80.91C45.2548 80.91 45.6614 80.7533 45.9748 80.44C46.2948 80.1267 46.4548 79.6867 46.4548 79.12V77.97C46.2748 78.29 46.0081 78.5567 45.6548 78.77C45.3014 78.9833 44.8881 79.09 44.4148 79.09C43.9281 79.09 43.4848 78.97 43.0848 78.73C42.6914 78.49 42.3814 78.1533 42.1548 77.72C41.9281 77.2867 41.8148 76.7933 41.8148 76.24C41.8148 75.68 41.9281 75.19 42.1548 74.77C42.3814 74.3433 42.6914 74.0133 43.0848 73.78C43.4848 73.5467 43.9281 73.43 44.4148 73.43ZM46.4548 76.25C46.4548 75.8367 46.3714 75.4767 46.2048 75.17C46.0381 74.8633 45.8114 74.63 45.5248 74.47C45.2448 74.3033 44.9348 74.22 44.5948 74.22C44.2548 74.22 43.9448 74.3 43.6648 74.46C43.3848 74.62 43.1614 74.8533 42.9948 75.16C42.8281 75.4667 42.7448 75.8267 42.7448 76.24C42.7448 76.66 42.8281 77.0267 42.9948 77.34C43.1614 77.6467 43.3848 77.8833 43.6648 78.05C43.9448 78.21 44.2548 78.29 44.5948 78.29C44.9348 78.29 45.2448 78.21 45.5248 78.05C45.8114 77.8833 46.0381 77.6467 46.2048 77.34C46.3714 77.0267 46.4548 76.6633 46.4548 76.25ZM51.6326 73.42C52.0459 73.42 52.4192 73.51 52.7526 73.69C53.0859 73.8633 53.3459 74.1267 53.5326 74.48C53.7259 74.8333 53.8226 75.2633 53.8226 75.77V79H52.9226V75.9C52.9226 75.3533 52.7859 74.9367 52.5126 74.65C52.2392 74.3567 51.8659 74.21 51.3926 74.21C50.9126 74.21 50.5292 74.36 50.2426 74.66C49.9626 74.96 49.8226 75.3967 49.8226 75.97V79H48.9126V71.6H49.8226V74.3C50.0026 74.02 50.2492 73.8033 50.5626 73.65C50.8826 73.4967 51.2392 73.42 51.6326 73.42Z" fill="white"/>
<path d="M32.088 99.66L28.956 108H27.372L24.228 99.66H25.692L28.164 106.596L30.648 99.66H32.088ZM39.292 104.532C39.292 104.78 39.276 105.004 39.244 105.204H34.192C34.232 105.732 34.428 106.156 34.78 106.476C35.132 106.796 35.564 106.956 36.076 106.956C36.812 106.956 37.332 106.648 37.636 106.032H39.112C38.912 106.64 38.548 107.14 38.02 107.532C37.5 107.916 36.852 108.108 36.076 108.108C35.444 108.108 34.876 107.968 34.372 107.688C33.876 107.4 33.484 107 33.196 106.488C32.916 105.968 32.776 105.368 32.776 104.688C32.776 104.008 32.912 103.412 33.184 102.9C33.464 102.38 33.852 101.98 34.348 101.7C34.852 101.42 35.428 101.28 36.076 101.28C36.7 101.28 37.256 101.416 37.744 101.688C38.232 101.96 38.612 102.344 38.884 102.84C39.156 103.328 39.292 103.892 39.292 104.532ZM37.864 104.1C37.856 103.596 37.676 103.192 37.324 102.888C36.972 102.584 36.536 102.432 36.016 102.432C35.544 102.432 35.14 102.584 34.804 102.888C34.468 103.184 34.268 103.588 34.204 104.1H37.864ZM42.0063 102.348C42.2063 102.012 42.4703 101.752 42.7983 101.568C43.1343 101.376 43.5303 101.28 43.9863 101.28V102.696H43.6383C43.1023 102.696 42.6943 102.832 42.4143 103.104C42.1423 103.376 42.0063 103.848 42.0063 104.52V108H40.6383V101.388H42.0063V102.348ZM47.6438 108.108C47.1238 108.108 46.6558 108.016 46.2398 107.832C45.8318 107.64 45.5078 107.384 45.2678 107.064C45.0278 106.736 44.8998 106.372 44.8838 105.972H46.2998C46.3238 106.252 46.4558 106.488 46.6958 106.68C46.9438 106.864 47.2518 106.956 47.6198 106.956C48.0038 106.956 48.2998 106.884 48.5078 106.74C48.7238 106.588 48.8318 106.396 48.8318 106.164C48.8318 105.916 48.7118 105.732 48.4718 105.612C48.2398 105.492 47.8678 105.36 47.3558 105.216C46.8598 105.08 46.4558 104.948 46.1438 104.82C45.8318 104.692 45.5598 104.496 45.3278 104.232C45.1038 103.968 44.9918 103.62 44.9918 103.188C44.9918 102.836 45.0958 102.516 45.3038 102.228C45.5118 101.932 45.8078 101.7 46.1918 101.532C46.5838 101.364 47.0318 101.28 47.5358 101.28C48.2878 101.28 48.8918 101.472 49.3478 101.856C49.8118 102.232 50.0598 102.748 50.0918 103.404H48.7238C48.6998 103.108 48.5798 102.872 48.3638 102.696C48.1478 102.52 47.8558 102.432 47.4878 102.432C47.1278 102.432 46.8518 102.5 46.6598 102.636C46.4678 102.772 46.3718 102.952 46.3718 103.176C46.3718 103.352 46.4358 103.5 46.5638 103.62C46.6918 103.74 46.8478 103.836 47.0318 103.908C47.2158 103.972 47.4878 104.056 47.8478 104.16C48.3278 104.288 48.7198 104.42 49.0238 104.556C49.3358 104.684 49.6038 104.876 49.8278 105.132C50.0518 105.388 50.1678 105.728 50.1758 106.152C50.1758 106.528 50.0718 106.864 49.8638 107.16C49.6558 107.456 49.3598 107.688 48.9758 107.856C48.5998 108.024 48.1558 108.108 47.6438 108.108ZM52.3499 100.512C52.1019 100.512 51.8939 100.428 51.7259 100.26C51.5579 100.092 51.4739 99.884 51.4739 99.636C51.4739 99.388 51.5579 99.18 51.7259 99.012C51.8939 98.844 52.1019 98.76 52.3499 98.76C52.5899 98.76 52.7939 98.844 52.9619 99.012C53.1299 99.18 53.2139 99.388 53.2139 99.636C53.2139 99.884 53.1299 100.092 52.9619 100.26C52.7939 100.428 52.5899 100.512 52.3499 100.512ZM53.0219 101.388V108H51.6539V101.388H53.0219ZM57.686 108.108C57.062 108.108 56.498 107.968 55.994 107.688C55.49 107.4 55.094 107 54.806 106.488C54.518 105.968 54.374 105.368 54.374 104.688C54.374 104.016 54.522 103.42 54.818 102.9C55.114 102.38 55.518 101.98 56.03 101.7C56.542 101.42 57.114 101.28 57.746 101.28C58.378 101.28 58.95 101.42 59.462 101.7C59.974 101.98 60.378 102.38 60.674 102.9C60.97 103.42 61.118 104.016 61.118 104.688C61.118 105.36 60.966 105.956 60.662 106.476C60.358 106.996 59.942 107.4 59.414 107.688C58.894 107.968 58.318 108.108 57.686 108.108ZM57.686 106.92C58.038 106.92 58.366 106.836 58.67 106.668C58.982 106.5 59.234 106.248 59.426 105.912C59.618 105.576 59.714 105.168 59.714 104.688C59.714 104.208 59.622 103.804 59.438 103.476C59.254 103.14 59.01 102.888 58.706 102.72C58.402 102.552 58.074 102.468 57.722 102.468C57.37 102.468 57.042 102.552 56.738 102.72C56.442 102.888 56.206 103.14 56.03 103.476C55.854 103.804 55.766 104.208 55.766 104.688C55.766 105.4 55.946 105.952 56.306 106.344C56.674 106.728 57.134 106.92 57.686 106.92ZM65.8063 101.28C66.3263 101.28 66.7903 101.388 67.1983 101.604C67.6143 101.82 67.9383 102.14 68.1703 102.564C68.4023 102.988 68.5183 103.5 68.5183 104.1V108H67.1623V104.304C67.1623 103.712 67.0143 103.26 66.7183 102.948C66.4223 102.628 66.0183 102.468 65.5063 102.468C64.9943 102.468 64.5863 102.628 64.2823 102.948C63.9863 103.26 63.8383 103.712 63.8383 104.304V108H62.4703V101.388H63.8383V102.144C64.0623 101.872 64.3463 101.66 64.6903 101.508C65.0423 101.356 65.4143 101.28 65.8063 101.28ZM73.0205 100.5V99.252H75.5165V108H74.1365V100.5H73.0205ZM83.561 108.108C82.937 108.108 82.373 107.968 81.869 107.688C81.365 107.4 80.969 107 80.681 106.488C80.393 105.968 80.249 105.368 80.249 104.688C80.249 104.016 80.397 103.42 80.693 102.9C80.989 102.38 81.393 101.98 81.905 101.7C82.417 101.42 82.989 101.28 83.621 101.28C84.253 101.28 84.825 101.42 85.337 101.7C85.849 101.98 86.253 102.38 86.549 102.9C86.845 103.42 86.993 104.016 86.993 104.688C86.993 105.36 86.841 105.956 86.537 106.476C86.233 106.996 85.817 107.4 85.289 107.688C84.769 107.968 84.193 108.108 83.561 108.108ZM83.561 106.92C83.913 106.92 84.241 106.836 84.545 106.668C84.857 106.5 85.109 106.248 85.301 105.912C85.493 105.576 85.589 105.168 85.589 104.688C85.589 104.208 85.497 103.804 85.313 103.476C85.129 103.14 84.885 102.888 84.581 102.72C84.277 102.552 83.949 102.468 83.597 102.468C83.245 102.468 82.917 102.552 82.613 102.72C82.317 102.888 82.081 103.14 81.905 103.476C81.729 103.804 81.641 104.208 81.641 104.688C81.641 105.4 81.821 105.952 82.181 106.344C82.549 106.728 83.009 106.92 83.561 106.92ZM91.1173 102.504H89.8933V108H88.5133V102.504H87.7333V101.388H88.5133V100.92C88.5133 100.16 88.7133 99.608 89.1133 99.264C89.5213 98.912 90.1573 98.736 91.0213 98.736V99.876C90.6053 99.876 90.3133 99.956 90.1453 100.116C89.9773 100.268 89.8933 100.536 89.8933 100.92V101.388H91.1173V102.504ZM100.043 108L96.8149 104.268V108H95.4469V99.66H96.8149V103.464L100.055 99.66H101.771L98.1469 103.836L101.831 108H100.043ZM102.585 104.664C102.585 104 102.721 103.412 102.993 102.9C103.273 102.388 103.649 101.992 104.121 101.712C104.601 101.424 105.129 101.28 105.705 101.28C106.225 101.28 106.677 101.384 107.061 101.592C107.453 101.792 107.765 102.044 107.997 102.348V101.388H109.377V108H107.997V107.016C107.765 107.328 107.449 107.588 107.049 107.796C106.649 108.004 106.193 108.108 105.681 108.108C105.113 108.108 104.593 107.964 104.121 107.676C103.649 107.38 103.273 106.972 102.993 106.452C102.721 105.924 102.585 105.328 102.585 104.664ZM107.997 104.688C107.997 104.232 107.901 103.836 107.709 103.5C107.525 103.164 107.281 102.908 106.977 102.732C106.673 102.556 106.345 102.468 105.993 102.468C105.641 102.468 105.313 102.556 105.009 102.732C104.705 102.9 104.457 103.152 104.265 103.488C104.081 103.816 103.989 104.208 103.989 104.664C103.989 105.12 104.081 105.52 104.265 105.864C104.457 106.208 104.705 106.472 105.009 106.656C105.321 106.832 105.649 106.92 105.993 106.92C106.345 106.92 106.673 106.832 106.977 106.656C107.281 106.48 107.525 106.224 107.709 105.888C107.901 105.544 107.997 105.144 107.997 104.688ZM114.509 101.28C115.029 101.28 115.493 101.388 115.901 101.604C116.317 101.82 116.641 102.14 116.873 102.564C117.105 102.988 117.221 103.5 117.221 104.1V108H115.865V104.304C115.865 103.712 115.717 103.26 115.421 102.948C115.125 102.628 114.721 102.468 114.209 102.468C113.697 102.468 113.289 102.628 112.985 102.948C112.689 103.26 112.541 103.712 112.541 104.304V108H111.173V101.388H112.541V102.144C112.765 101.872 113.049 101.66 113.393 101.508C113.745 101.356 114.117 101.28 114.509 101.28ZM120.334 102.372C120.566 102.052 120.882 101.792 121.282 101.592C121.69 101.384 122.142 101.28 122.638 101.28C123.222 101.28 123.75 101.42 124.222 101.7C124.694 101.98 125.066 102.38 125.338 102.9C125.61 103.412 125.746 104 125.746 104.664C125.746 105.328 125.61 105.924 125.338 106.452C125.066 106.972 124.69 107.38 124.21 107.676C123.738 107.964 123.214 108.108 122.638 108.108C122.126 108.108 121.67 108.008 121.27 107.808C120.878 107.608 120.566 107.352 120.334 107.04V108H118.966V99.12H120.334V102.372ZM124.354 104.664C124.354 104.208 124.258 103.816 124.066 103.488C123.882 103.152 123.634 102.9 123.322 102.732C123.018 102.556 122.69 102.468 122.338 102.468C121.994 102.468 121.666 102.556 121.354 102.732C121.05 102.908 120.802 103.164 120.61 103.5C120.426 103.836 120.334 104.232 120.334 104.688C120.334 105.144 120.426 105.544 120.61 105.888C120.802 106.224 121.05 106.48 121.354 106.656C121.666 106.832 121.994 106.92 122.338 106.92C122.69 106.92 123.018 106.832 123.322 106.656C123.634 106.472 123.882 106.208 124.066 105.864C124.258 105.52 124.354 105.12 124.354 104.664ZM126.643 104.664C126.643 104 126.779 103.412 127.051 102.9C127.331 102.388 127.707 101.992 128.179 101.712C128.659 101.424 129.187 101.28 129.763 101.28C130.283 101.28 130.735 101.384 131.119 101.592C131.511 101.792 131.823 102.044 132.055 102.348V101.388H133.435V108H132.055V107.016C131.823 107.328 131.507 107.588 131.107 107.796C130.707 108.004 130.251 108.108 129.739 108.108C129.171 108.108 128.651 107.964 128.179 107.676C127.707 107.38 127.331 106.972 127.051 106.452C126.779 105.924 126.643 105.328 126.643 104.664ZM132.055 104.688C132.055 104.232 131.959 103.836 131.767 103.5C131.583 103.164 131.339 102.908 131.035 102.732C130.731 102.556 130.403 102.468 130.051 102.468C129.699 102.468 129.371 102.556 129.067 102.732C128.763 102.9 128.515 103.152 128.323 103.488C128.139 103.816 128.047 104.208 128.047 104.664C128.047 105.12 128.139 105.52 128.323 105.864C128.515 106.208 128.763 106.472 129.067 106.656C129.379 106.832 129.707 106.92 130.051 106.92C130.403 106.92 130.731 106.832 131.035 106.656C131.339 106.48 131.583 106.224 131.767 105.888C131.959 105.544 132.055 105.144 132.055 104.688ZM138.568 101.28C139.088 101.28 139.552 101.388 139.96 101.604C140.376 101.82 140.7 102.14 140.932 102.564C141.164 102.988 141.28 103.5 141.28 104.1V108H139.924V104.304C139.924 103.712 139.776 103.26 139.48 102.948C139.184 102.628 138.78 102.468 138.268 102.468C137.756 102.468 137.348 102.628 137.044 102.948C136.748 103.26 136.6 103.712 136.6 104.304V108H135.232V101.388H136.6V102.144C136.824 101.872 137.108 101.66 137.452 101.508C137.804 101.356 138.176 101.28 138.568 101.28ZM150.606 103.716C151.054 103.796 151.434 104.032 151.746 104.424C152.058 104.816 152.214 105.26 152.214 105.756C152.214 106.18 152.102 106.564 151.878 106.908C151.662 107.244 151.346 107.512 150.93 107.712C150.514 107.904 150.03 108 149.478 108H146.142V99.66H149.322C149.89 99.66 150.378 99.756 150.786 99.948C151.194 100.14 151.502 100.4 151.71 100.728C151.918 101.048 152.022 101.408 152.022 101.808C152.022 102.288 151.894 102.688 151.638 103.008C151.382 103.328 151.038 103.564 150.606 103.716ZM147.51 103.164H149.202C149.65 103.164 149.998 103.064 150.246 102.864C150.502 102.656 150.63 102.36 150.63 101.976C150.63 101.6 150.502 101.308 150.246 101.1C149.998 100.884 149.65 100.776 149.202 100.776H147.51V103.164ZM149.358 106.884C149.822 106.884 150.186 106.772 150.45 106.548C150.714 106.324 150.846 106.012 150.846 105.612C150.846 105.204 150.706 104.88 150.426 104.64C150.146 104.4 149.774 104.28 149.31 104.28H147.51V106.884H149.358ZM156.569 108.108C155.945 108.108 155.381 107.968 154.877 107.688C154.373 107.4 153.977 107 153.689 106.488C153.401 105.968 153.257 105.368 153.257 104.688C153.257 104.016 153.405 103.42 153.701 102.9C153.997 102.38 154.401 101.98 154.913 101.7C155.425 101.42 155.997 101.28 156.629 101.28C157.261 101.28 157.833 101.42 158.345 101.7C158.857 101.98 159.261 102.38 159.557 102.9C159.853 103.42 160.001 104.016 160.001 104.688C160.001 105.36 159.849 105.956 159.545 106.476C159.241 106.996 158.825 107.4 158.297 107.688C157.777 107.968 157.201 108.108 156.569 108.108ZM156.569 106.92C156.921 106.92 157.249 106.836 157.553 106.668C157.865 106.5 158.117 106.248 158.309 105.912C158.501 105.576 158.597 105.168 158.597 104.688C158.597 104.208 158.505 103.804 158.321 103.476C158.137 103.14 157.893 102.888 157.589 102.72C157.285 102.552 156.957 102.468 156.605 102.468C156.253 102.468 155.925 102.552 155.621 102.72C155.325 102.888 155.089 103.14 154.913 103.476C154.737 103.804 154.649 104.208 154.649 104.688C154.649 105.4 154.829 105.952 155.189 106.344C155.557 106.728 156.017 106.92 156.569 106.92ZM160.897 104.664C160.897 104 161.033 103.412 161.305 102.9C161.585 102.388 161.961 101.992 162.433 101.712C162.913 101.424 163.441 101.28 164.017 101.28C164.537 101.28 164.989 101.384 165.373 101.592C165.765 101.792 166.077 102.044 166.309 102.348V101.388H167.689V108H166.309V107.016C166.077 107.328 165.761 107.588 165.361 107.796C164.961 108.004 164.505 108.108 163.993 108.108C163.425 108.108 162.905 107.964 162.433 107.676C161.961 107.38 161.585 106.972 161.305 106.452C161.033 105.924 160.897 105.328 160.897 104.664ZM166.309 104.688C166.309 104.232 166.213 103.836 166.021 103.5C165.837 103.164 165.593 102.908 165.289 102.732C164.985 102.556 164.657 102.468 164.305 102.468C163.953 102.468 163.625 102.556 163.321 102.732C163.017 102.9 162.769 103.152 162.577 103.488C162.393 103.816 162.301 104.208 162.301 104.664C162.301 105.12 162.393 105.52 162.577 105.864C162.769 106.208 163.017 106.472 163.321 106.656C163.633 106.832 163.961 106.92 164.305 106.92C164.657 106.92 164.985 106.832 165.289 106.656C165.593 106.48 165.837 106.224 166.021 105.888C166.213 105.544 166.309 105.144 166.309 104.688ZM170.854 102.348C171.054 102.012 171.318 101.752 171.646 101.568C171.982 101.376 172.378 101.28 172.834 101.28V102.696H172.486C171.95 102.696 171.542 102.832 171.262 103.104C170.99 103.376 170.854 103.848 170.854 104.52V108H169.486V101.388H170.854V102.348ZM173.635 104.664C173.635 104 173.771 103.412 174.043 102.9C174.323 102.388 174.699 101.992 175.171 101.712C175.651 101.424 176.183 101.28 176.767 101.28C177.199 101.28 177.623 101.376 178.039 101.568C178.463 101.752 178.799 102 179.047 102.312V99.12H180.427V108H179.047V107.004C178.823 107.324 178.511 107.588 178.111 107.796C177.719 108.004 177.267 108.108 176.755 108.108C176.179 108.108 175.651 107.964 175.171 107.676C174.699 107.38 174.323 106.972 174.043 106.452C173.771 105.924 173.635 105.328 173.635 104.664ZM179.047 104.688C179.047 104.232 178.951 103.836 178.759 103.5C178.575 103.164 178.331 102.908 178.027 102.732C177.723 102.556 177.395 102.468 177.043 102.468C176.691 102.468 176.363 102.556 176.059 102.732C175.755 102.9 175.507 103.152 175.315 103.488C175.131 103.816 175.039 104.208 175.039 104.664C175.039 105.12 175.131 105.52 175.315 105.864C175.507 106.208 175.755 106.472 176.059 106.656C176.371 106.832 176.699 106.92 177.043 106.92C177.395 106.92 177.723 106.832 178.027 106.656C178.331 106.48 178.575 106.224 178.759 105.888C178.951 105.544 179.047 105.144 179.047 104.688ZM190.729 99.66V100.776H188.509V108H187.141V100.776H184.909V99.66H190.729ZM198.175 104.532C198.175 104.78 198.159 105.004 198.127 105.204H193.075C193.115 105.732 193.311 106.156 193.663 106.476C194.015 106.796 194.447 106.956 194.959 106.956C195.695 106.956 196.215 106.648 196.519 106.032H197.995C197.795 106.64 197.431 107.14 196.903 107.532C196.383 107.916 195.735 108.108 194.959 108.108C194.327 108.108 193.759 107.968 193.255 107.688C192.759 107.4 192.367 107 192.079 106.488C191.799 105.968 191.659 105.368 191.659 104.688C191.659 104.008 191.795 103.412 192.067 102.9C192.347 102.38 192.735 101.98 193.231 101.7C193.735 101.42 194.311 101.28 194.959 101.28C195.583 101.28 196.139 101.416 196.627 101.688C197.115 101.96 197.495 102.344 197.767 102.84C198.039 103.328 198.175 103.892 198.175 104.532ZM196.747 104.1C196.739 103.596 196.559 103.192 196.207 102.888C195.855 102.584 195.419 102.432 194.899 102.432C194.427 102.432 194.023 102.584 193.687 102.888C193.351 103.184 193.151 103.588 193.087 104.1H196.747ZM207.525 101.28C208.045 101.28 208.509 101.388 208.917 101.604C209.333 101.82 209.657 102.14 209.889 102.564C210.129 102.988 210.249 103.5 210.249 104.1V108H208.893V104.304C208.893 103.712 208.745 103.26 208.449 102.948C208.153 102.628 207.749 102.468 207.237 102.468C206.725 102.468 206.317 102.628 206.013 102.948C205.717 103.26 205.569 103.712 205.569 104.304V108H204.213V104.304C204.213 103.712 204.065 103.26 203.769 102.948C203.473 102.628 203.069 102.468 202.557 102.468C202.045 102.468 201.637 102.628 201.333 102.948C201.037 103.26 200.889 103.712 200.889 104.304V108H199.521V101.388H200.889V102.144C201.113 101.872 201.397 101.66 201.741 101.508C202.085 101.356 202.453 101.28 202.845 101.28C203.373 101.28 203.845 101.392 204.261 101.616C204.677 101.84 204.997 102.164 205.221 102.588C205.421 102.188 205.733 101.872 206.157 101.64C206.581 101.4 207.037 101.28 207.525 101.28ZM213.358 102.36C213.59 102.056 213.906 101.8 214.306 101.592C214.706 101.384 215.158 101.28 215.662 101.28C216.238 101.28 216.762 101.424 217.234 101.712C217.714 101.992 218.09 102.388 218.362 102.9C218.634 103.412 218.77 104 218.77 104.664C218.77 105.328 218.634 105.924 218.362 106.452C218.09 106.972 217.714 107.38 217.234 107.676C216.762 107.964 216.238 108.108 215.662 108.108C215.158 108.108 214.71 108.008 214.318 107.808C213.926 107.6 213.606 107.344 213.358 107.04V111.144H211.99V101.388H213.358V102.36ZM217.378 104.664C217.378 104.208 217.282 103.816 217.09 103.488C216.906 103.152 216.658 102.9 216.346 102.732C216.042 102.556 215.714 102.468 215.362 102.468C215.018 102.468 214.69 102.556 214.378 102.732C214.074 102.908 213.826 103.164 213.634 103.5C213.45 103.836 213.358 104.232 213.358 104.688C213.358 105.144 213.45 105.544 213.634 105.888C213.826 106.224 214.074 106.48 214.378 106.656C214.69 106.832 215.018 106.92 215.362 106.92C215.714 106.92 216.042 106.832 216.346 106.656C216.658 106.472 216.906 106.208 217.09 105.864C217.282 105.52 217.378 105.12 217.378 104.664ZM221.491 99.12V108H220.123V99.12H221.491ZM222.831 104.664C222.831 104 222.967 103.412 223.239 102.9C223.519 102.388 223.895 101.992 224.367 101.712C224.847 101.424 225.375 101.28 225.951 101.28C226.471 101.28 226.923 101.384 227.307 101.592C227.699 101.792 228.011 102.044 228.243 102.348V101.388H229.623V108H228.243V107.016C228.011 107.328 227.695 107.588 227.295 107.796C226.895 108.004 226.439 108.108 225.927 108.108C225.359 108.108 224.839 107.964 224.367 107.676C223.895 107.38 223.519 106.972 223.239 106.452C222.967 105.924 222.831 105.328 222.831 104.664ZM228.243 104.688C228.243 104.232 228.147 103.836 227.955 103.5C227.771 103.164 227.527 102.908 227.223 102.732C226.919 102.556 226.591 102.468 226.239 102.468C225.887 102.468 225.559 102.556 225.255 102.732C224.951 102.9 224.703 103.152 224.511 103.488C224.327 103.816 224.235 104.208 224.235 104.664C224.235 105.12 224.327 105.52 224.511 105.864C224.703 106.208 224.951 106.472 225.255 106.656C225.567 106.832 225.895 106.92 226.239 106.92C226.591 106.92 226.919 106.832 227.223 106.656C227.527 106.48 227.771 106.224 227.955 105.888C228.147 105.544 228.243 105.144 228.243 104.688ZM233.016 102.504V106.164C233.016 106.412 233.072 106.592 233.184 106.704C233.304 106.808 233.504 106.86 233.784 106.86H234.624V108H233.544C232.928 108 232.456 107.856 232.128 107.568C231.8 107.28 231.636 106.812 231.636 106.164V102.504H230.856V101.388H231.636V99.744H233.016V101.388H234.624V102.504H233.016ZM241.944 104.532C241.944 104.78 241.928 105.004 241.896 105.204H236.844C236.884 105.732 237.08 106.156 237.432 106.476C237.784 106.796 238.216 106.956 238.728 106.956C239.464 106.956 239.984 106.648 240.288 106.032H241.764C241.564 106.64 241.2 107.14 240.672 107.532C240.152 107.916 239.504 108.108 238.728 108.108C238.096 108.108 237.528 107.968 237.024 107.688C236.528 107.4 236.136 107 235.848 106.488C235.568 105.968 235.428 105.368 235.428 104.688C235.428 104.008 235.564 103.412 235.836 102.9C236.116 102.38 236.504 101.98 237 101.7C237.504 101.42 238.08 101.28 238.728 101.28C239.352 101.28 239.908 101.416 240.396 101.688C240.884 101.96 241.264 102.344 241.536 102.84C241.808 103.328 241.944 103.892 241.944 104.532ZM240.516 104.1C240.508 103.596 240.328 103.192 239.976 102.888C239.624 102.584 239.188 102.432 238.668 102.432C238.196 102.432 237.792 102.584 237.456 102.888C237.12 103.184 236.92 103.588 236.856 104.1H240.516ZM26.268 120.348C26.468 120.012 26.732 119.752 27.06 119.568C27.396 119.376 27.792 119.28 28.248 119.28V120.696H27.9C27.364 120.696 26.956 120.832 26.676 121.104C26.404 121.376 26.268 121.848 26.268 122.52V126H24.9V119.388H26.268V120.348ZM35.5655 122.532C35.5655 122.78 35.5495 123.004 35.5175 123.204H30.4655C30.5055 123.732 30.7015 124.156 31.0535 124.476C31.4055 124.796 31.8375 124.956 32.3495 124.956C33.0855 124.956 33.6055 124.648 33.9095 124.032H35.3855C35.1855 124.64 34.8215 125.14 34.2935 125.532C33.7735 125.916 33.1255 126.108 32.3495 126.108C31.7175 126.108 31.1495 125.968 30.6455 125.688C30.1495 125.4 29.7575 125 29.4695 124.488C29.1895 123.968 29.0495 123.368 29.0495 122.688C29.0495 122.008 29.1855 121.412 29.4575 120.9C29.7375 120.38 30.1255 119.98 30.6215 119.7C31.1255 119.42 31.7015 119.28 32.3495 119.28C32.9735 119.28 33.5295 119.416 34.0175 119.688C34.5055 119.96 34.8855 120.344 35.1575 120.84C35.4295 121.328 35.5655 121.892 35.5655 122.532ZM34.1375 122.1C34.1295 121.596 33.9495 121.192 33.5975 120.888C33.2455 120.584 32.8095 120.432 32.2895 120.432C31.8175 120.432 31.4135 120.584 31.0775 120.888C30.7415 121.184 30.5415 121.588 30.4775 122.1H34.1375ZM38.2797 117.12V126H36.9117V117.12H38.2797ZM46.1358 122.532C46.1358 122.78 46.1198 123.004 46.0878 123.204H41.0358C41.0758 123.732 41.2718 124.156 41.6238 124.476C41.9758 124.796 42.4078 124.956 42.9198 124.956C43.6558 124.956 44.1758 124.648 44.4798 124.032H45.9558C45.7558 124.64 45.3918 125.14 44.8638 125.532C44.3438 125.916 43.6958 126.108 42.9198 126.108C42.2878 126.108 41.7198 125.968 41.2158 125.688C40.7198 125.4 40.3278 125 40.0398 124.488C39.7598 123.968 39.6198 123.368 39.6198 122.688C39.6198 122.008 39.7558 121.412 40.0278 120.9C40.3078 120.38 40.6958 119.98 41.1918 119.7C41.6958 119.42 42.2718 119.28 42.9198 119.28C43.5438 119.28 44.0998 119.416 44.5878 119.688C45.0758 119.96 45.4558 120.344 45.7278 120.84C45.9998 121.328 46.1358 121.892 46.1358 122.532ZM44.7078 122.1C44.6998 121.596 44.5198 121.192 44.1678 120.888C43.8158 120.584 43.3798 120.432 42.8598 120.432C42.3878 120.432 41.9838 120.584 41.6478 120.888C41.3118 121.184 41.1118 121.588 41.0478 122.1H44.7078ZM47.026 122.664C47.026 122 47.162 121.412 47.434 120.9C47.714 120.388 48.09 119.992 48.562 119.712C49.042 119.424 49.57 119.28 50.146 119.28C50.666 119.28 51.118 119.384 51.502 119.592C51.894 119.792 52.206 120.044 52.438 120.348V119.388H53.818V126H52.438V125.016C52.206 125.328 51.89 125.588 51.49 125.796C51.09 126.004 50.634 126.108 50.122 126.108C49.554 126.108 49.034 125.964 48.562 125.676C48.09 125.38 47.714 124.972 47.434 124.452C47.162 123.924 47.026 123.328 47.026 122.664ZM52.438 122.688C52.438 122.232 52.342 121.836 52.15 121.5C51.966 121.164 51.722 120.908 51.418 120.732C51.114 120.556 50.786 120.468 50.434 120.468C50.082 120.468 49.754 120.556 49.45 120.732C49.146 120.9 48.898 121.152 48.706 121.488C48.522 121.816 48.43 122.208 48.43 122.664C48.43 123.12 48.522 123.52 48.706 123.864C48.898 124.208 49.146 124.472 49.45 124.656C49.762 124.832 50.09 124.92 50.434 124.92C50.786 124.92 51.114 124.832 51.418 124.656C51.722 124.48 51.966 124.224 52.15 123.888C52.342 123.544 52.438 123.144 52.438 122.688ZM58.0148 126.108C57.4948 126.108 57.0268 126.016 56.6108 125.832C56.2028 125.64 55.8788 125.384 55.6388 125.064C55.3988 124.736 55.2708 124.372 55.2548 123.972H56.6708C56.6948 124.252 56.8268 124.488 57.0668 124.68C57.3148 124.864 57.6228 124.956 57.9908 124.956C58.3748 124.956 58.6708 124.884 58.8788 124.74C59.0948 124.588 59.2028 124.396 59.2028 124.164C59.2028 123.916 59.0828 123.732 58.8428 123.612C58.6108 123.492 58.2388 123.36 57.7268 123.216C57.2308 123.08 56.8268 122.948 56.5148 122.82C56.2028 122.692 55.9308 122.496 55.6988 122.232C55.4748 121.968 55.3628 121.62 55.3628 121.188C55.3628 120.836 55.4668 120.516 55.6748 120.228C55.8828 119.932 56.1788 119.7 56.5628 119.532C56.9548 119.364 57.4028 119.28 57.9068 119.28C58.6588 119.28 59.2628 119.472 59.7188 119.856C60.1828 120.232 60.4308 120.748 60.4628 121.404H59.0948C59.0708 121.108 58.9508 120.872 58.7348 120.696C58.5188 120.52 58.2268 120.432 57.8588 120.432C57.4988 120.432 57.2228 120.5 57.0308 120.636C56.8388 120.772 56.7428 120.952 56.7428 121.176C56.7428 121.352 56.8068 121.5 56.9348 121.62C57.0628 121.74 57.2188 121.836 57.4028 121.908C57.5868 121.972 57.8588 122.056 58.2188 122.16C58.6988 122.288 59.0908 122.42 59.3948 122.556C59.7068 122.684 59.9748 122.876 60.1988 123.132C60.4228 123.388 60.5388 123.728 60.5468 124.152C60.5468 124.528 60.4428 124.864 60.2348 125.16C60.0268 125.456 59.7308 125.688 59.3468 125.856C58.9708 126.024 58.5268 126.108 58.0148 126.108ZM68.085 122.532C68.085 122.78 68.069 123.004 68.037 123.204H62.985C63.025 123.732 63.221 124.156 63.573 124.476C63.925 124.796 64.357 124.956 64.869 124.956C65.605 124.956 66.125 124.648 66.429 124.032H67.905C67.705 124.64 67.341 125.14 66.813 125.532C66.293 125.916 65.645 126.108 64.869 126.108C64.237 126.108 63.669 125.968 63.165 125.688C62.669 125.4 62.277 125 61.989 124.488C61.709 123.968 61.569 123.368 61.569 122.688C61.569 122.008 61.705 121.412 61.977 120.9C62.257 120.38 62.645 119.98 63.141 119.7C63.645 119.42 64.221 119.28 64.869 119.28C65.493 119.28 66.049 119.416 66.537 119.688C67.025 119.96 67.405 120.344 67.677 120.84C67.949 121.328 68.085 121.892 68.085 122.532ZM66.657 122.1C66.649 121.596 66.469 121.192 66.117 120.888C65.765 120.584 65.329 120.432 64.809 120.432C64.337 120.432 63.933 120.584 63.597 120.888C63.261 121.184 63.061 121.588 62.997 122.1H66.657Z" fill="#221C1D"/>
<path d="M32.624 143.388V151H31.623V145.324L29.093 151H28.389L25.848 145.313V151H24.847V143.388H25.925L28.741 149.68L31.557 143.388H32.624ZM33.9476 147.964C33.9476 147.348 34.0723 146.809 34.3216 146.347C34.5709 145.878 34.9119 145.515 35.3446 145.258C35.7846 145.001 36.2723 144.873 36.8076 144.873C37.3356 144.873 37.7939 144.987 38.1826 145.214C38.5713 145.441 38.8609 145.727 39.0516 146.072V144.972H40.0636V151H39.0516V149.878C38.8536 150.23 38.5566 150.523 38.1606 150.758C37.7719 150.985 37.3173 151.099 36.7966 151.099C36.2613 151.099 35.7773 150.967 35.3446 150.703C34.9119 150.439 34.5709 150.069 34.3216 149.592C34.0723 149.115 33.9476 148.573 33.9476 147.964ZM39.0516 147.975C39.0516 147.52 38.9599 147.124 38.7766 146.787C38.5933 146.45 38.3439 146.193 38.0286 146.017C37.7206 145.834 37.3796 145.742 37.0056 145.742C36.6316 145.742 36.2906 145.83 35.9826 146.006C35.6746 146.182 35.4289 146.439 35.2456 146.776C35.0623 147.113 34.9706 147.509 34.9706 147.964C34.9706 148.426 35.0623 148.829 35.2456 149.174C35.4289 149.511 35.6746 149.772 35.9826 149.955C36.2906 150.131 36.6316 150.219 37.0056 150.219C37.3796 150.219 37.7206 150.131 38.0286 149.955C38.3439 149.772 38.5933 149.511 38.7766 149.174C38.9599 148.829 39.0516 148.43 39.0516 147.975ZM42.7562 145.951C42.9322 145.606 43.1815 145.339 43.5042 145.148C43.8342 144.957 44.2339 144.862 44.7032 144.862V145.896H44.4392C43.3172 145.896 42.7562 146.505 42.7562 147.722V151H41.7552V144.972H42.7562V145.951ZM48.3843 149.229V148.47L52.2453 143.124H53.4443V148.36H54.5443V149.229H53.4443V151H52.4543V149.229H48.3843ZM52.4983 144.169L49.5393 148.36H52.4983V144.169ZM56.7433 149.614L55.5113 152.573H54.8403L55.6433 149.614H56.7433ZM60.5366 150.197C61.4679 149.449 62.1976 148.837 62.7256 148.36C63.2536 147.876 63.6973 147.374 64.0566 146.853C64.4233 146.325 64.6066 145.808 64.6066 145.302C64.6066 144.825 64.4893 144.451 64.2546 144.18C64.0273 143.901 63.6569 143.762 63.1436 143.762C62.6449 143.762 62.2563 143.92 61.9776 144.235C61.7063 144.543 61.5596 144.957 61.5376 145.478H60.5696C60.5989 144.657 60.8483 144.022 61.3176 143.575C61.7869 143.128 62.3919 142.904 63.1326 142.904C63.8879 142.904 64.4856 143.113 64.9256 143.531C65.3729 143.949 65.5966 144.525 65.5966 145.258C65.5966 145.867 65.4133 146.461 65.0466 147.04C64.6873 147.612 64.2766 148.118 63.8146 148.558C63.3526 148.991 62.7623 149.497 62.0436 150.076H65.8276V150.912H60.5366V150.197ZM66.9847 146.941C66.9847 145.68 67.1901 144.697 67.6007 143.993C68.0114 143.282 68.7301 142.926 69.7567 142.926C70.7761 142.926 71.4911 143.282 71.9017 143.993C72.3124 144.697 72.5177 145.68 72.5177 146.941C72.5177 148.224 72.3124 149.222 71.9017 149.933C71.4911 150.644 70.7761 151 69.7567 151C68.7301 151 68.0114 150.644 67.6007 149.933C67.1901 149.222 66.9847 148.224 66.9847 146.941ZM71.5277 146.941C71.5277 146.303 71.4837 145.764 71.3957 145.324C71.3151 144.877 71.1427 144.517 70.8787 144.246C70.6221 143.975 70.2481 143.839 69.7567 143.839C69.2581 143.839 68.8767 143.975 68.6127 144.246C68.3561 144.517 68.1837 144.877 68.0957 145.324C68.0151 145.764 67.9747 146.303 67.9747 146.941C67.9747 147.601 68.0151 148.155 68.0957 148.602C68.1837 149.049 68.3561 149.409 68.6127 149.68C68.8767 149.951 69.2581 150.087 69.7567 150.087C70.2481 150.087 70.6221 149.951 70.8787 149.68C71.1427 149.409 71.3151 149.049 71.3957 148.602C71.4837 148.155 71.5277 147.601 71.5277 146.941ZM73.771 150.197C74.7023 149.449 75.432 148.837 75.96 148.36C76.488 147.876 76.9316 147.374 77.291 146.853C77.6576 146.325 77.841 145.808 77.841 145.302C77.841 144.825 77.7236 144.451 77.489 144.18C77.2616 143.901 76.8913 143.762 76.378 143.762C75.8793 143.762 75.4906 143.92 75.212 144.235C74.9406 144.543 74.794 144.957 74.772 145.478H73.804C73.8333 144.657 74.0826 144.022 74.552 143.575C75.0213 143.128 75.6263 142.904 76.367 142.904C77.1223 142.904 77.72 143.113 78.16 143.531C78.6073 143.949 78.831 144.525 78.831 145.258C78.831 145.867 78.6476 146.461 78.281 147.04C77.9216 147.612 77.511 148.118 77.049 148.558C76.587 148.991 75.9966 149.497 75.278 150.076H79.062V150.912H73.771V150.197ZM85.2901 143.916H81.4291V146.424C81.5978 146.189 81.8471 145.999 82.1771 145.852C82.5071 145.698 82.8628 145.621 83.2441 145.621C83.8528 145.621 84.3478 145.749 84.7291 146.006C85.1104 146.255 85.3818 146.582 85.5431 146.985C85.7118 147.381 85.7961 147.803 85.7961 148.25C85.7961 148.778 85.6971 149.251 85.4991 149.669C85.3011 150.087 84.9968 150.417 84.5861 150.659C84.1828 150.901 83.6804 151.022 83.0791 151.022C82.3091 151.022 81.6858 150.824 81.2091 150.428C80.7324 150.032 80.4428 149.504 80.3401 148.844H81.3191C81.4144 149.262 81.6161 149.588 81.9241 149.823C82.2321 150.058 82.6208 150.175 83.0901 150.175C83.6694 150.175 84.1058 150.003 84.3991 149.658C84.6924 149.306 84.8391 148.844 84.8391 148.272C84.8391 147.7 84.6924 147.26 84.3991 146.952C84.1058 146.637 83.6731 146.479 83.1011 146.479C82.7124 146.479 82.3714 146.574 82.0781 146.765C81.7921 146.948 81.5831 147.201 81.4511 147.524H80.5051V143.036H85.2901V143.916Z" fill="#666666"/>
</svg>
